<svg width="32" height="32" viewBox="0 0 32 32" fill="none" xmlns="http://www.w3.org/2000/svg">
    <path
        d="M29.3333 17.3333V12C29.3333 5.33329 26.6667 2.66663 20 2.66663H12C5.33332 2.66663 2.66666 5.33329 2.66666 12V20C2.66666 26.6666 5.33332 29.3333 12 29.3333H17.3333"
        stroke="#018BCB" stroke-width="2" stroke-linecap="round" stroke-linejoin="round" />
    <path
        d="M29.3333 17.3333V12C29.3333 5.33329 26.6667 2.66663 20 2.66663H12C5.33332 2.66663 2.66666 5.33329 2.66666 12V20C2.66666 26.6666 5.33332 29.3333 12 29.3333H17.3333"
        stroke="#018BCB" stroke-width="2" stroke-linecap="round" stroke-linejoin="round" />
    <path
        d="M29.3333 17.3333V12C29.3333 5.33329 26.6667 2.66663 20 2.66663H12C5.33332 2.66663 2.66666 5.33329 2.66666 12V20C2.66666 26.6666 5.33332 29.3333 12 29.3333H17.3333"
        stroke="#018BCB" stroke-width="3" stroke-linecap="round" stroke-linejoin="round" />
    <path d="M21.3333 25.9066L23.44 28L28 22.6666" stroke="#018BCB" stroke-width="3" stroke-linecap="round"
        stroke-linejoin="round" />
    <path d="M9.33334 14V18" stroke="#018BCB" stroke-width="3" stroke-linecap="round" stroke-linejoin="round" />
    <path d="M16 14V18" stroke="#018BCB" stroke-width="3" stroke-linecap="round" stroke-linejoin="round" />
    <path d="M22.6666 14V18" stroke="#018BCB" stroke-width="3" stroke-linecap="round" stroke-linejoin="round" />
</svg>