<svg width="32" height="32" viewBox="0 0 32 32" fill="none" xmlns="http://www.w3.org/2000/svg">
    <path
        d="M13.3334 26.6667C13.3334 28.1394 14.5273 29.3333 16 29.3333C17.4728 29.3333 18.6667 28.1394 18.6667 26.6667C18.6667 25.1939 17.4728 24 16 24C14.5273 24 13.3334 25.1939 13.3334 26.6667Z"
        stroke="#018BCB" stroke-width="3" stroke-linecap="round" stroke-linejoin="round" />
    <path
        d="M24 26.6667C24 28.1394 25.1939 29.3333 26.6666 29.3333C28.1394 29.3333 29.3333 28.1394 29.3333 26.6667C29.3333 25.1939 28.1394 24 26.6666 24C25.1939 24 24 25.1939 24 26.6667Z"
        stroke="#018BCB" stroke-width="3" stroke-linecap="round" stroke-linejoin="round" />
    <path
        d="M2.66667 26.6667C2.66667 28.1394 3.86057 29.3333 5.33333 29.3333C6.80609 29.3333 8 28.1394 8 26.6667C8 25.1939 6.80609 24 5.33333 24C3.86057 24 2.66667 25.1939 2.66667 26.6667Z"
        stroke="#018BCB" stroke-width="3" stroke-linecap="round" stroke-linejoin="round" />
    <path
        d="M13.3334 5.33329C13.3334 6.80605 14.5273 7.99996 16 7.99996C17.4728 7.99996 18.6667 6.80605 18.6667 5.33329C18.6667 3.86053 17.4728 2.66663 16 2.66663C14.5273 2.66663 13.3334 3.86053 13.3334 5.33329Z"
        stroke="#018BCB" stroke-width="3" stroke-linecap="round" stroke-linejoin="round" />
    <path d="M16 8L16 24" stroke="#018BCB" stroke-width="3" stroke-linecap="round" stroke-linejoin="round" />
    <path
        d="M26.6667 24L26.6667 18.6666C26.6667 16 25.3334 14.6666 22.6667 14.6666L9.33335 14.6666C6.66669 14.6666 5.33335 16 5.33335 18.6666L5.33335 24"
        stroke="#018BCB" stroke-width="3" stroke-linecap="round" stroke-linejoin="round" />
</svg>