<svg width="33" height="32" viewBox="0 0 33 32" fill="none" xmlns="http://www.w3.org/2000/svg">
<g clip-path="url(#clip0_4694_12915)">
<path d="M16.3784 32C25.215 32 32.3784 24.8366 32.3784 16C32.3784 7.16344 25.215 0 16.3784 0C7.54186 0 0.378418 7.16344 0.378418 16C0.378418 24.8366 7.54186 32 16.3784 32Z" fill="#F0F0F0"/>
<path d="M3.68591 6.25887C2.4291 7.89406 1.48141 9.77875 0.929596 11.8262H9.25322L3.68591 6.25887Z" fill="#0052B4"/>
<path d="M31.8272 11.8262C31.2754 9.77881 30.3277 7.89412 29.0709 6.25893L23.5037 11.8262H31.8272Z" fill="#0052B4"/>
<path d="M0.929596 20.174C1.48147 22.2214 2.42916 24.1061 3.68591 25.7412L9.25303 20.174H0.929596Z" fill="#0052B4"/>
<path d="M26.1195 3.30756C24.4843 2.05075 22.5997 1.10306 20.5523 0.551186V8.87475L26.1195 3.30756Z" fill="#0052B4"/>
<path d="M6.63727 28.6924C8.27246 29.9493 10.1571 30.8969 12.2045 31.4488V23.1253L6.63727 28.6924Z" fill="#0052B4"/>
<path d="M12.2045 0.551186C10.1571 1.10306 8.27239 2.05075 6.63727 3.3075L12.2045 8.87469V0.551186Z" fill="#0052B4"/>
<path d="M20.5523 31.4488C22.5997 30.8969 24.4844 29.9492 26.1195 28.6925L20.5523 23.1253V31.4488Z" fill="#0052B4"/>
<path d="M23.5037 20.174L29.0709 25.7412C30.3277 24.1061 31.2754 22.2214 31.8272 20.174H23.5037Z" fill="#0052B4"/>
<path d="M32.243 13.9131H18.4655H18.4654V0.135438C17.7822 0.0465 17.0857 0 16.3784 0C15.671 0 14.9746 0.0465 14.2915 0.135438V13.9129V13.913H0.513855C0.424918 14.5962 0.378418 15.2927 0.378418 16C0.378418 16.7074 0.424918 17.4038 0.513855 18.0869H14.2914H14.2914V31.8646C14.9746 31.9535 15.671 32 16.3784 32C17.0857 32 17.7822 31.9536 18.4654 31.8646V18.0871V18.087H32.243C32.3319 17.4038 32.3784 16.7074 32.3784 16C32.3784 15.2927 32.3319 14.5962 32.243 13.9131Z" fill="#D80027"/>
<path d="M20.5524 20.174L27.6921 27.3137C28.0205 26.9855 28.3337 26.6423 28.6326 26.2866L22.52 20.1739H20.5524V20.174Z" fill="#D80027"/>
<path d="M12.2045 20.174H12.2044L5.06467 27.3137C5.39292 27.6421 5.7361 27.9553 6.09185 28.2542L12.2045 22.1414V20.174Z" fill="#D80027"/>
<path d="M12.2045 11.8262V11.8261L5.06474 4.68625C4.73636 5.0145 4.42311 5.35769 4.12424 5.71344L10.2369 11.8261H12.2045V11.8262Z" fill="#D80027"/>
<path d="M20.5524 11.8262L27.6922 4.68631C27.3639 4.35794 27.0207 4.04469 26.665 3.74588L20.5524 9.85856V11.8262Z" fill="#D80027"/>
</g>
<defs>
<clipPath id="clip0_4694_12915">
<rect width="32" height="32" fill="white" transform="translate(0.378418)"/>
</clipPath>
</defs>
</svg>
