<svg xmlns="http://www.w3.org/2000/svg" width="px" height="px" viewBox="0 0 284 284"><path d="M75.527 16.555C110.121-1.004 150.36-5.203 187.355 6.89a140.32 140.32 0 0 1 80.833 70.097 141.4 141.4 0 0 1 15.28 67.426c.274 20.422-4.991 40.84-13.57 59.29-1.636 3.526-3.457 7.874-5.824 10.944-.914 1.575-1.902 3.047-2.969 4.524-3.87 5.668-7.98 11.121-12.609 16.2-3.77 4.444-8.293 8.554-12.703 12.355-16.371 14.101-35.074 25.023-55.996 30.738A143 143 0 0 1 72.195 265.23a145.34 145.34 0 0 1-62.129-69.996c-1.605-3.918-3.343-7.953-4.453-12.043-3.508-13.53-6.117-27.504-5.531-41.558 2.824 15.613 9.656 24.144 22.652 33.172 19.032 13.21 42.465 20.68 64.453 27.3.06 4.528.09 9.055.102 13.579l8.856 2.457c7.636 1.277 15.355 3.152 22.921 4.824a544 544 0 0 0 29.157 4.597c5.683.696 11.52.938 17.16 1.825 6.77 1.258 15.664 1.125 22.59 1.289-.047-1.317.004-2.637.03-3.953l.165 3.906c18.742.21 34.383-.922 52.363-6.281 1.926-.77 3.45-1.703 5.028-3.028 6.668-8.465 13.91-18.718 15.554-29.613-19.5 9.074-43.484 10.023-64.62 7.832l-.028-32.351-.05-8.547 6.503 1.03c4.402-21.956 6.156-54.37 1.223-76.37a310 310 0 0 0-100.254-16.86C94.254 88.145 87.117 115.7 87.19 139.52q.112 15.172.07 30.343c-7.667-1.648-15.753-4.543-23.081-7.328-18.532-7.039-47.078-18.86-55.489-37.836-6.468-14.597-1.093-26.984 4.317-40.765 1.824-5.57 5.035-10.942 8.05-15.954a134.8 134.8 0 0 1 54.47-51.425m149.5 224.222c-14.024 2.637-28.692 1.965-42.852 1.055-1.965 1.602-3.852 5.5-5.598 7.652-7.312 9.016-15.777 16.043-26.262 21.07 26.993-1.011 54.2-12.3 74.711-29.777m-136.12-15.89c4.948 15.992 11.323 32.265 27.034 40.508 7.696 4.03 15.692 4.246 23.895 1.613 11.027-3.535 20.43-11.238 27.82-19.957 1.293-1.524 3.438-3.938 4.114-5.836.035-.102.039-.211.054-.32-9.031-.512-18.187-2.024-27.117-3.489-18.656-3.058-37.777-6.777-55.8-12.52m-60.614-24.374c.484 2.828 3.332 6.578 4.875 9.015 9.867 15.63 20.727 28.075 35.922 38.832 9.32 6.602 19.195 11.43 29.71 15.778-9.195-9.301-15.515-19.492-19.073-32.172-.977-3.488-1.293-7.258-2.415-10.672-3.472-.598-7.398-2.418-10.71-3.664a303 303 0 0 1-38.309-17.117M215.219 88.18a217 217 0 0 1 .008 52.375c-.747 6.644-2.286 13.347-2.786 19.984 15.086.7 33.18-.027 46.852-6.941 4.11-2.313 8.777-5.567 10.121-10.36 1.336-4.773-2.496-12.543-4.918-16.601-8.887-14.883-24.656-26.133-39.812-34.043-2.993-1.563-6.235-3.438-9.465-4.414M88.989 66.687c-1.438.043-2.915.008-4.344.153C70 68.078 54.973 69.71 41.344 75.574c-2.457 1.055-5.324 2.203-7.102 4.274-3.719 4.328-6.125 12-7.765 17.437 5.238 6.73 11.32 11.418 18.421 16.004 8.543 5.527 18.18 9.598 27.508 13.582 2.317-14.195 5.164-27.77 9.676-41.46 2.086-6.337 4.754-12.427 6.906-18.723m97.04-48.88c12.824 10.852 19.726 27.395 23.988 43.282 1.144 4.27 1.765 8.719 3.023 12.937 19.973 9.692 39.488 21.278 53.606 38.793.289.356.156.211.507.504-4.996-31.168-23.527-60.91-49.129-79.383-8.597-6.203-21.886-13.617-31.996-16.132m-14.328-.5c-4.855-3.079-10.55-5.301-16.387-4.743-13.171 1.305-24.343 11.293-32.417 21.086-4.622 5.614-8.82 12-12.375 18.34 18.687.504 38.644 3.117 56.816 7.633a191.5 191.5 0 0 1 34.488 10.414c-4.265-19.426-12.57-41.617-30.125-52.73m-43.46-4.414c-26.66 4.218-51.102 15.5-70.442 34.472-3.082 3.028-7.05 6.422-9.422 10.008-.195.293-.418.602-.457.96 15.914-5.206 31.695-5.8 48.258-6.737 5.465-10.012 11.39-19.52 19.347-27.77 2.645-2.742 5.356-5.226 8.418-7.504.848-.625 4.055-2.547 4.297-3.43" style="stroke:none;fill-rule:nonzero;fill:#f7f9fd;fill-opacity:1"/><path d="M283.473 144.414c.27 20.426-4.996 40.844-13.57 59.293-1.641 3.527-3.458 7.875-5.825 10.945-.914 1.575-1.902 3.047-2.969 4.524-3.043 1.258-6.898 2.586-10.214 2.633a32 32 0 0 1-5.336-.489c6.671-8.46 13.91-18.715 15.554-29.613-19.496 9.074-43.484 10.023-64.62 7.836l-.028-32.352c3.914.41 7.797 1.114 11.719 1.418 18.496 1.442 41.418.766 58.332-7.62 5.437-2.692 14.414-9.036 16.386-15.063.172-.512.371-1.008.57-1.512" style="stroke:none;fill-rule:nonzero;fill:#f7f9fd;fill-opacity:1"/><path d="m250.895 221.809.156-.579c2.617-1.582 5.613-2.636 8.355-4.02 1.594-.804 2.985-1.976 4.672-2.562-.914 1.579-1.902 3.047-2.969 4.524-3.039 1.258-6.898 2.586-10.214 2.637M13.012 83.934c.039.109.086.214.117.328.148.527.144.918.164 1.457.3 9.34 7.187 16.293 13.68 22.258 12.804 11.77 30.34 19.058 46.593 24.703 3.73 1.297 10.532 2.543 13.598 4.55-.004.766-.027 1.524.031 2.29.075 10.113.094 20.23.067 30.343-7.668-1.648-15.75-4.543-23.078-7.328-18.532-7.039-47.082-18.86-55.493-37.836-6.468-14.601-1.093-26.988 4.32-40.765" style="stroke:none;fill-rule:nonzero;fill:#f7f9fd;fill-opacity:1"/><path d="M.082 141.629c2.824 15.613 9.656 24.148 22.656 33.172 19.028 13.21 42.465 20.68 64.453 27.304q.084 6.786.098 13.579l8.86 2.453c7.632 1.277 15.355 3.156 22.921 4.828a547 547 0 0 0 29.153 4.594c5.683.695 11.523.941 17.16 1.828 6.77 1.258 15.664 1.12 22.594 1.289-.047-1.317 0-2.637.027-3.957l.168 3.91c18.738.21 34.379-.926 52.36-6.285 1.925-.77 3.448-1.703 5.027-3.028 1.804.317 3.504.47 5.336.489 3.316-.051 7.171-1.375 10.214-2.633-3.875 5.664-7.98 11.121-12.613 16.2-2.851-.571-7.832 2.491-11.016 3.245-4.082.969-8.437 1.028-12.453 2.16-14.023 2.633-28.691 1.961-42.851 1.051-2.836-1.09-7.278-.789-10.352-.937-9.031-.512-18.187-2.024-27.113-3.485-18.66-3.058-37.777-6.777-55.805-12.523-1.777-1.074-9.105-2.824-11.59-3.594-3.476-.598-7.398-2.418-10.714-3.664a303 303 0 0 1-38.309-17.113c-2.063-1.696-4.559-2.895-6.836-4.282-4.793-2.917-10.945-7.125-14.39-11.664-.47-.617-.797-.957-1.454-1.375C2.11 169.656-.5 155.684.082 141.63" style="stroke:none;fill-rule:nonzero;fill:#f7f9fd;fill-opacity:1"/><path d="M245.559 221.316c1.808.317 3.504.47 5.34.493l.054.687c-3.945 1.492-5.5.82-9.016 4.11-.906.847-2.207 2.554-3.394 2.835-.55-.515-.492-.543-.566-1.304.652-1.703 1.464-2.438 2.558-3.793 1.926-.77 3.45-1.7 5.024-3.028M142.14 89.352c15.949 5.03 33.949 15.296 41.941 30.515 1.965 3.742 3.152 7.606 3.648 11.801.555 4.664.38 9.496.364 14.187l-.028 19.083c0 20.59.2 41.199-.058 61.785-.028 1.316-.074 2.636-.031 3.953-6.926-.164-15.82-.031-22.59-1.29l.015-50.945c0-7.554.809-20.492-.754-27.347-.968-4.239-3.347-7.953-6.363-11.043-4.16-4.266-9.582-7.153-15.637-7.203-6.043-.055-11.707 2.875-15.906 7.09-3.203 3.222-5.683 7.335-6.742 11.769-1.77 7.398-.945 19.375-.945 27.211l.015 44.047c-7.566-1.672-15.285-3.55-22.922-4.828l.043-55.586-.02-16.762c-.015-5.926-.39-12.004 1.099-17.797 1.851-7.21 6.03-13.402 11.226-18.64 8.8-8.872 21.492-16.536 33.645-20m-23.07 133.613a544 544 0 0 0 29.156 4.594c5.683.695 11.52.941 17.16 1.828-5.64-.887-11.477-1.13-17.164-1.825a544 544 0 0 1-29.153-4.597m0 0" style="stroke:none;fill-rule:nonzero;fill:#f7f9fd;fill-opacity:1"/></svg>