<svg width="567" height="567" viewBox="0 0 567 567" fill="none" xmlns="http://www.w3.org/2000/svg">
    <path
        d="M150.786 33.049C219.854 -2.00537 300.189 -10.387 374.048 13.757C444.231 37.2794 502.25 87.5913 535.432 153.707C556.579 195.369 567.06 241.618 565.94 288.317C566.483 329.094 555.969 369.855 538.849 406.688C535.575 413.732 531.948 422.413 527.221 428.541C525.397 431.687 523.423 434.626 521.295 437.573C513.562 448.888 505.362 459.776 496.115 469.914C488.592 478.789 479.562 486.992 470.754 494.579C438.071 522.733 400.734 544.541 358.958 555.948C286.657 575.683 209.486 566.191 144.134 529.524C88.4995 497.882 44.8912 448.754 20.0956 389.785C16.8933 381.956 13.424 373.903 11.203 365.738C4.20715 338.721 -1.00336 310.823 0.16394 282.765C5.80054 313.939 19.443 330.974 45.3905 348.99C83.3803 375.368 130.172 390.28 174.071 403.5C174.184 412.537 174.25 421.573 174.27 430.61L191.953 435.511C207.196 438.061 222.61 441.808 237.715 445.145C257.03 448.729 276.439 451.789 295.921 454.32C307.268 455.709 318.925 456.198 330.184 457.967C343.696 460.478 361.453 460.212 375.287 460.541C375.193 457.913 375.291 455.276 375.342 452.648L375.677 460.448C413.089 460.868 444.317 458.602 480.215 447.902C484.058 446.366 487.102 444.505 490.25 441.858C503.565 424.962 518.021 404.489 521.306 382.737C482.377 400.853 434.49 402.748 392.291 398.375L392.237 333.79L392.138 316.725L405.125 318.779C413.908 274.947 417.41 210.229 407.561 166.305C343.154 144.153 275.527 132.78 207.411 132.649C188.174 175.98 173.93 230.993 174.077 278.547C174.225 298.741 174.27 318.935 174.213 339.13C158.904 335.836 142.766 330.056 128.134 324.498C91.1383 310.448 34.1426 286.847 17.3524 248.963C4.43436 219.812 15.1654 195.082 25.9716 167.574C29.6147 156.447 36.0241 145.73 42.0458 135.723C67.8546 91.9204 105.557 56.3203 150.786 33.049ZM449.263 480.71C421.261 485.97 391.977 484.626 363.71 482.81C359.787 486.013 356.018 493.796 352.536 498.09C337.939 516.093 321.038 530.118 300.105 540.153C353.996 538.134 408.313 515.602 449.263 480.71ZM177.498 448.983C187.382 480.907 200.111 513.4 231.475 529.851C246.836 537.906 262.801 538.335 279.182 533.078C301.199 526.015 319.969 510.641 334.726 493.233C337.306 490.188 341.585 485.369 342.932 481.584C343.005 481.379 343.009 481.156 343.047 480.942C325.011 479.92 306.735 476.9 288.908 473.979C251.66 467.873 213.486 460.447 177.498 448.983ZM56.4852 400.321C57.457 405.961 63.14 413.448 66.2167 418.32C85.915 449.517 107.6 474.363 137.933 495.844C156.541 509.021 176.256 518.662 197.255 527.344C178.899 508.778 166.274 488.427 159.175 463.114C157.222 456.15 156.589 448.625 154.356 441.807C147.417 440.61 139.585 436.979 132.97 434.491C106.715 424.881 81.1598 413.464 56.4852 400.321ZM429.676 176.045C433.903 210.774 433.909 245.885 429.696 280.613C428.203 293.884 425.134 307.263 424.133 320.516C454.257 321.907 490.378 320.457 517.671 306.655C525.875 302.038 535.194 295.543 537.879 285.97C540.55 276.44 532.899 260.928 528.06 252.825C510.318 223.115 478.837 200.651 448.577 184.86C442.599 181.741 436.13 177.995 429.676 176.045ZM177.663 133.143C174.796 133.223 171.842 133.155 168.993 133.444C139.754 135.915 109.752 139.173 82.5409 150.879C77.6368 152.99 71.9145 155.282 68.3602 159.418C60.9379 168.059 56.132 183.372 52.8563 194.226C63.32 207.664 75.4637 217.024 89.6356 226.176C106.697 237.211 125.932 245.34 144.559 253.299C149.183 224.954 154.868 197.853 163.872 170.519C168.039 157.867 173.363 145.708 177.663 133.143ZM371.398 35.5549C397.005 57.2182 410.781 90.2471 419.289 121.967C421.574 130.489 422.818 139.371 425.331 147.793C465.203 167.139 504.166 190.277 532.354 225.241C532.927 225.951 532.659 225.668 533.362 226.252C523.387 164.024 486.395 104.641 435.28 67.7609C418.113 55.3751 391.584 40.5731 371.398 35.5549ZM342.793 34.5529C333.097 28.4134 321.73 23.9768 310.077 25.0852C283.783 27.6914 261.473 47.6347 245.36 67.1867C236.128 78.3896 227.744 91.1422 220.652 103.804C257.963 104.809 297.802 110.027 334.08 119.039C357.636 123.792 380.691 130.757 402.938 139.835C394.424 101.046 377.839 56.7443 342.793 34.5529ZM256.026 25.7414C202.8 34.164 153.998 56.6871 115.393 94.5715C109.235 100.614 101.314 107.392 96.577 114.546C96.186 115.136 95.7474 115.75 95.6678 116.465C127.439 106.067 158.947 104.887 192.012 103.014C202.922 83.0273 214.755 64.0473 230.64 47.5764C235.92 42.0999 241.329 37.135 247.447 32.5939C249.136 31.3399 255.539 27.5105 256.026 25.7414Z"
        fill="#F7F9FD" />
    <path
        d="M565.944 288.322C566.487 329.099 555.972 369.86 538.853 406.693C535.578 413.737 531.952 422.419 527.224 428.547C525.4 431.693 523.427 434.632 521.299 437.579C515.228 440.091 507.525 442.74 500.908 442.84C497.247 442.799 493.86 442.497 490.254 441.863C503.569 424.967 518.025 404.494 521.309 382.742C482.381 400.859 434.494 402.754 392.294 398.381L392.241 333.796C400.049 334.616 407.805 336.017 415.636 336.628C452.559 339.504 498.327 338.156 532.096 321.411C542.945 316.033 560.872 303.372 564.812 291.337C565.148 290.314 565.553 289.325 565.944 288.322Z"
        fill="#F7F9FD" />
    <path
        d="M500.908 442.835L501.22 441.682C506.444 438.522 512.428 436.416 517.896 433.659C521.082 432.054 523.854 429.709 527.225 428.542C525.401 431.688 523.427 434.627 521.299 437.574C515.229 440.085 507.525 442.734 500.908 442.835Z"
        fill="#F7F9FD" />
    <path
        d="M25.9756 167.573C26.055 167.79 26.151 168.003 26.2138 168.226C26.5101 169.277 26.5042 170.061 26.5386 171.133C27.1418 189.784 40.8895 203.661 53.8503 215.574C79.4162 239.073 114.427 253.621 146.877 264.894C154.321 267.48 167.897 269.966 174.022 273.98C174.01 275.506 173.969 277.022 174.081 278.546C174.229 298.74 174.274 318.934 174.217 339.129C158.909 335.835 142.771 330.056 128.138 324.497C91.142 310.447 34.146 286.846 17.3561 248.962C4.43799 219.81 15.1695 195.081 25.9756 167.573Z"
        fill="#F7F9FD" />
    <path
        d="M0.167117 282.76C5.80367 313.934 19.4459 330.97 45.3935 348.986C83.3833 375.364 130.175 390.275 174.074 403.496C174.187 412.533 174.253 421.569 174.273 430.606L191.957 435.507C207.2 438.057 222.613 441.804 237.718 445.141C257.033 448.725 276.442 451.785 295.924 454.316C307.271 455.705 318.927 456.193 330.187 457.962C343.699 460.474 361.456 460.207 375.291 460.537C375.197 457.908 375.294 455.272 375.345 452.643L375.68 460.444C413.093 460.863 444.32 458.598 480.219 447.897C484.062 446.362 487.104 444.501 490.252 441.854C493.858 442.487 497.246 442.789 500.906 442.831C507.523 442.73 515.227 440.081 521.297 437.57C513.564 448.884 505.365 459.772 496.118 469.91C490.422 468.773 480.478 474.886 474.126 476.395C465.978 478.33 457.281 478.449 449.264 480.706C421.262 485.965 391.977 484.621 363.71 482.805C358.049 480.627 349.183 481.229 343.047 480.936C325.012 479.915 306.736 476.895 288.909 473.974C251.661 467.869 213.487 460.442 177.499 448.977C173.953 446.826 159.319 443.335 154.357 441.802C147.418 440.604 139.586 436.974 132.971 434.486C106.716 424.876 81.1611 413.459 56.4864 400.316C52.3668 396.935 47.3869 394.535 42.8395 391.767C33.2694 385.941 20.9842 377.542 14.1068 368.485C13.1705 367.252 12.5151 366.57 11.2067 365.734C4.21084 338.717 -1.00025 310.819 0.167117 282.76Z"
        fill="#F7F9FD" />
    <path
        d="M490.256 441.856C493.862 442.489 497.249 442.791 500.91 442.833L501.02 444.205C493.145 447.184 490.044 445.85 483.023 452.414C481.21 454.109 478.617 457.512 476.244 458.072C475.144 457.048 475.265 456.989 475.119 455.47C476.416 452.07 478.038 450.601 480.222 447.9C484.066 446.364 487.108 444.504 490.256 441.856Z"
        fill="#F7F9FD" />
    <path
        d="M283.779 178.387C315.62 188.434 351.561 208.931 367.515 239.31C371.438 246.78 373.813 254.499 374.803 262.872C375.904 272.181 375.553 281.828 375.525 291.194L375.467 329.294C375.472 370.398 375.869 411.545 375.35 452.645C375.299 455.273 375.202 457.909 375.295 460.538C361.461 460.209 343.703 460.475 330.192 457.964L330.191 457.963L330.219 356.258C330.225 341.168 331.837 315.34 328.715 301.656C326.784 293.193 322.033 285.78 316.016 279.61C307.708 271.091 296.879 265.332 284.793 265.226C272.731 265.12 261.419 270.964 253.041 279.386C246.645 285.817 241.69 294.026 239.574 302.877C236.045 317.651 237.689 341.56 237.689 357.208L237.72 445.141C222.616 441.804 207.204 438.058 191.961 435.508L192.044 324.526L192.009 291.064C191.971 279.235 191.223 267.096 194.195 255.532C197.892 241.138 206.236 228.773 216.613 218.316C234.184 200.609 259.521 185.303 283.779 178.387ZM237.722 445.142C257.037 448.726 276.447 451.786 295.928 454.317C307.275 455.706 318.931 456.194 330.191 457.963V457.966C318.931 456.197 307.275 455.71 295.927 454.321C276.446 451.79 257.036 448.73 237.721 445.146L237.72 445.141L237.722 445.142Z"
        fill="#F7F9FD" />
</svg>