<svg width="52" height="52" viewBox="0 0 52 52" fill="none" xmlns="http://www.w3.org/2000/svg">
    <g clip-path="url(#clip0_4591_11856)">
        <rect width="52" height="52" rx="10" fill="url(#paint0_linear_4591_11856)" />
        <g filter="url(#filter0_f_4591_11856)">
            <circle cx="1" cy="4" r="18" fill="#00F2FF" />
        </g>
        <g filter="url(#filter1_f_4591_11856)">
            <circle cx="46.5" cy="46.5" r="20.5" fill="#5100FF" />
        </g>
        <path
            d="M16.6555 8.3355C21.5365 5.85824 27.2143 5.26598 32.4338 6.97222C37.3934 8.63457 41.4933 12.1897 43.8381 16.8619C45.3326 19.806 46.0735 23.0744 45.9944 26.3746C46.0328 29.2562 45.2901 32.1369 44.0803 34.7398C43.8489 35.2376 43.5922 35.8517 43.2581 36.2847C43.1292 36.5069 42.9895 36.7142 42.8391 36.9224C42.2927 37.7219 41.7132 38.4912 41.0598 39.2076C40.5282 39.8347 39.8902 40.4146 39.2678 40.9507C36.9583 42.9402 34.3196 44.4814 31.3674 45.2876C26.258 46.6823 20.8042 46.0117 16.1858 43.4205C12.2542 41.1844 9.17247 37.7127 7.42018 33.5455C7.19389 32.9922 6.94822 32.4232 6.79127 31.8462C6.29687 29.9369 5.9285 27.9649 6.011 25.982C6.40932 28.185 7.37365 29.3895 9.20728 30.6626C11.8919 32.5266 15.1988 33.5799 18.301 34.5142C18.309 35.1528 18.3143 35.7917 18.3157 36.4302L19.5647 36.7769C20.6419 36.9572 21.7316 37.2218 22.7991 37.4576C24.164 37.7109 25.5357 37.9271 26.9124 38.106C27.7141 38.2041 28.5377 38.2389 29.3333 38.3638C30.288 38.5413 31.5432 38.5222 32.5208 38.5455C32.5142 38.3598 32.5211 38.1735 32.5247 37.9878L32.5491 38.5396C35.1926 38.5692 37.3993 38.4089 39.9358 37.6529C40.2074 37.5443 40.4233 37.4123 40.6458 37.2251C41.5866 36.0312 42.608 34.5844 42.8401 33.0474C40.0891 34.3277 36.705 34.4619 33.7229 34.1529L33.719 29.5884L33.7122 28.3824L34.6301 28.5279C35.2508 25.4304 35.4979 20.8566 34.802 17.7525C30.2504 16.187 25.4712 15.3829 20.6575 15.3736C19.298 18.4357 18.2917 22.3236 18.302 25.6841C18.3125 27.1111 18.3158 28.5383 18.3118 29.9654C17.2299 29.7326 16.089 29.324 15.0549 28.9312C12.4405 27.9382 8.41235 26.2705 7.22584 23.5933C6.31322 21.5335 7.07164 19.7861 7.83521 17.8423C8.09263 17.0561 8.54546 16.2984 8.97096 15.5914C10.7948 12.496 13.4594 9.98007 16.6555 8.3355ZM37.7493 39.9712C35.7706 40.3429 33.7008 40.248 31.7034 40.1197C31.4262 40.346 31.1593 40.8953 30.9133 41.1988C29.8818 42.471 28.6874 43.4623 27.2083 44.1714C31.0166 44.0287 34.8555 42.437 37.7493 39.9712ZM18.5432 37.7291C19.2417 39.985 20.1414 42.2813 22.3577 43.4439C23.4432 44.0132 24.5721 44.0429 25.7297 43.6714C27.2854 43.1722 28.6118 42.0861 29.6546 40.856C29.8369 40.6409 30.1394 40.3002 30.2346 40.0328C30.2397 40.0185 30.2398 40.0028 30.2424 39.9878C28.9679 39.9156 27.676 39.7021 26.4163 39.4957C23.7841 39.0642 21.0863 38.5392 18.5432 37.7291ZM9.99146 34.2896C10.0601 34.6881 10.4615 35.2178 10.679 35.5621C12.071 37.7668 13.6037 39.5225 15.7473 41.0406C17.0623 41.9717 18.4558 42.6526 19.9397 43.2662C18.6426 41.9542 17.75 40.5158 17.2483 38.7271C17.1104 38.2352 17.066 37.7037 16.9085 37.2222C16.4181 37.1376 15.8642 36.8805 15.3967 36.7046C13.5414 36.0255 11.7352 35.2184 9.99146 34.2896ZM36.3645 18.441C36.6632 20.8951 36.6642 23.3765 36.3665 25.8306C36.2609 26.7683 36.0437 27.7136 35.9729 28.65C38.1017 28.7483 40.6545 28.6458 42.5833 27.6705C43.163 27.3441 43.8213 26.885 44.011 26.2085C44.1996 25.5351 43.6596 24.4394 43.3176 23.8668C42.0638 21.7671 39.8389 20.179 37.7004 19.063C37.278 18.8426 36.8206 18.5788 36.3645 18.441ZM18.5549 15.4087C18.3525 15.4144 18.1438 15.4098 17.9426 15.4302C15.8765 15.6049 13.7561 15.8346 11.8333 16.6617C11.4869 16.8108 11.0825 16.9732 10.8313 17.2652C10.3068 17.8757 9.9671 18.9582 9.7356 19.7251C10.475 20.6748 11.3328 21.3362 12.3342 21.983C13.5399 22.7628 14.8996 23.3375 16.2161 23.9C16.5428 21.897 16.9441 19.9819 17.5803 18.0503C17.8748 17.1563 18.2511 16.2967 18.5549 15.4087ZM32.2463 8.51226C34.0559 10.0432 35.0298 12.3771 35.6311 14.6187C35.7926 15.2209 35.8803 15.8487 36.0579 16.4439C38.8755 17.8111 41.6293 19.4467 43.6213 21.9175C43.6613 21.9671 43.6424 21.9479 43.6917 21.9888C42.9867 17.5913 40.3731 13.3949 36.761 10.7886C35.5478 9.91334 33.6728 8.8669 32.2463 8.51226ZM30.2249 8.44195C29.5397 8.00806 28.7359 7.6937 27.9124 7.77202C26.0544 7.95634 24.4778 9.36597 23.3391 10.7476C22.6867 11.5393 22.0942 12.4407 21.593 13.3355C24.2296 13.4065 27.045 13.7748 29.6087 14.4117C31.2732 14.7475 32.9027 15.2399 34.4749 15.8814C33.8732 13.1404 32.7012 10.0102 30.2249 8.44195ZM24.093 7.8189C20.3316 8.41411 16.8827 10.0059 14.1546 12.6832C13.7194 13.1101 13.1592 13.5887 12.8245 14.0943C12.7969 14.1359 12.7667 14.1796 12.761 14.23C15.0061 13.4954 17.2331 13.4122 19.5696 13.2798C20.3406 11.8674 21.1765 10.5259 22.2991 9.36187C22.6722 8.97493 23.0544 8.62413 23.4866 8.30327C23.6059 8.21468 24.0584 7.94397 24.093 7.8189Z"
            fill="white" />
        <path
            d="M45.9946 26.375C46.033 29.2567 45.2899 32.1372 44.0801 34.7402C43.8487 35.238 43.5924 35.8515 43.2583 36.2846C43.1294 36.5069 42.99 36.7146 42.8395 36.9229C42.4106 37.1004 41.8662 37.2875 41.3986 37.2947C41.1399 37.2917 40.9005 37.2704 40.6456 37.2256C41.5866 36.0316 42.6082 34.5848 42.8403 33.0476C40.0893 34.3279 36.7051 34.4618 33.7229 34.1527L33.7191 29.5886C34.2709 29.6466 34.8191 29.7456 35.3724 29.7887C37.9818 29.992 41.2162 29.8967 43.6026 28.7134C44.3693 28.3333 45.6362 27.4386 45.9146 26.5881C45.9383 26.5158 45.967 26.4459 45.9946 26.375Z"
            fill="white" />
        <path
            d="M41.3986 37.2943L41.4206 37.2128C41.7898 36.9895 42.2127 36.8407 42.5991 36.6458C42.8242 36.5324 43.0201 36.3667 43.2583 36.2842C43.1294 36.5065 42.99 36.7142 42.8396 36.9225C42.4106 37.1 41.8662 37.2872 41.3986 37.2943Z"
            fill="#FFEFEE" />
        <path
            d="M7.83542 17.8418C7.84103 17.8571 7.84781 17.8722 7.85225 17.8879C7.87319 17.9622 7.87277 18.0176 7.8752 18.0933C7.91783 19.4114 8.88937 20.3921 9.80529 21.2339C11.612 22.8946 14.0862 23.9227 16.3794 24.7194C16.9055 24.9021 17.8649 25.0778 18.2977 25.3614C18.2969 25.4693 18.294 25.5764 18.3019 25.6841C18.3124 27.1112 18.3155 28.5384 18.3115 29.9655C17.2297 29.7327 16.0892 29.3243 15.0551 28.9315C12.4407 27.9385 8.41281 26.2707 7.22628 23.5935C6.31337 21.5333 7.07175 19.7858 7.83542 17.8418Z"
            fill="white" />
        <path
            d="M6.01159 25.9819C6.40992 28.185 7.374 29.3889 9.2077 30.6621C11.8924 32.5261 15.1992 33.5799 18.3015 34.5142C18.3094 35.1528 18.3141 35.7914 18.3155 36.43L19.5652 36.7764C20.6424 36.9566 21.7317 37.2214 22.7991 37.4572C24.1641 37.7105 25.5357 37.9268 26.9125 38.1057C27.7144 38.2038 28.5381 38.2383 29.3339 38.3633C30.2887 38.5408 31.5436 38.522 32.5213 38.5452C32.5146 38.3595 32.5215 38.1732 32.5251 37.9874L32.5488 38.5387C35.1927 38.5683 37.3996 38.4082 39.9364 37.652C40.2081 37.5435 40.423 37.412 40.6455 37.2249C40.9004 37.2697 41.1397 37.291 41.3984 37.294C41.866 37.2869 42.4104 37.0997 42.8394 36.9222C42.2929 37.7217 41.7135 38.4912 41.0601 39.2076C40.6575 39.1273 39.9548 39.5593 39.5059 39.666C38.9301 39.8027 38.3155 39.8111 37.7489 39.9705C35.7701 40.3423 33.7005 40.2473 31.7029 40.1189C31.3028 39.965 30.6763 40.0075 30.2427 39.9869C28.9681 39.9147 27.6765 39.7013 26.4167 39.4948C23.7845 39.0634 21.0868 38.5385 18.5435 37.7283C18.2929 37.5763 17.2587 37.3296 16.9081 37.2212C16.4177 37.1366 15.8642 36.8801 15.3967 36.7043C13.5413 36.0251 11.7354 35.2183 9.99163 34.2895C9.7005 34.0505 9.34857 33.881 9.02721 33.6853C8.3509 33.2736 7.48271 32.6801 6.99669 32.04C6.93053 31.9529 6.88421 31.9047 6.79175 31.8456C6.29735 29.9363 5.92909 27.9648 6.01159 25.9819Z"
            fill="white" />
        <path
            d="M40.6458 37.2251C40.9006 37.2699 41.14 37.2912 41.3987 37.2941L41.4065 37.3911C40.85 37.6017 40.6308 37.5074 40.1346 37.9712C40.0065 38.091 39.8232 38.3315 39.6555 38.3711C39.5778 38.2987 39.5864 38.2945 39.5761 38.1872C39.6677 37.9469 39.7824 37.8431 39.9367 37.6522C40.2083 37.5437 40.4233 37.4122 40.6458 37.2251Z"
            fill="white" />
        <path
            d="M26.0546 18.606C28.3045 19.316 30.8441 20.7642 31.9716 22.9106C32.2488 23.4386 32.4173 23.985 32.4872 24.5767C32.565 25.2344 32.54 25.9159 32.538 26.5776L32.5341 29.27C32.5344 32.1748 32.562 35.0833 32.5253 37.9878C32.5217 38.1734 32.5148 38.3598 32.5214 38.5454C31.5438 38.5222 30.2887 38.5403 29.3339 38.3628L29.3359 31.1763C29.3363 30.1099 29.45 28.2839 29.2294 27.3169C29.0929 26.719 28.7571 26.1952 28.332 25.7593C27.7449 25.1573 26.9799 24.7502 26.1259 24.7427C25.2735 24.7352 24.4738 25.1485 23.8818 25.7437C23.4299 26.1981 23.0801 26.7784 22.9306 27.4038C22.6813 28.4478 22.7968 30.137 22.7968 31.2427L22.7997 37.4575C21.7323 37.2217 20.6426 36.9561 19.5654 36.7759L19.5712 28.9331L19.5693 26.5688C19.5666 25.7329 19.5136 24.8743 19.7236 24.0571C19.9849 23.0401 20.5743 22.1661 21.3075 21.4272C22.5493 20.1759 24.3404 19.0947 26.0546 18.606ZM29.3339 38.3638V38.3628V38.3638Z"
            fill="white" />
    </g>
    <defs>
        <filter id="filter0_f_4591_11856" x="-217" y="-214" width="436" height="436" filterUnits="userSpaceOnUse"
            color-interpolation-filters="sRGB">
            <feFlood flood-opacity="0" result="BackgroundImageFix" />
            <feBlend mode="normal" in="SourceGraphic" in2="BackgroundImageFix" result="shape" />
            <feGaussianBlur stdDeviation="100" result="effect1_foregroundBlur_4591_11856" />
        </filter>
        <filter id="filter1_f_4591_11856" x="-174" y="-174" width="441" height="441" filterUnits="userSpaceOnUse"
            color-interpolation-filters="sRGB">
            <feFlood flood-opacity="0" result="BackgroundImageFix" />
            <feBlend mode="normal" in="SourceGraphic" in2="BackgroundImageFix" result="shape" />
            <feGaussianBlur stdDeviation="100" result="effect1_foregroundBlur_4591_11856" />
        </filter>
        <linearGradient id="paint0_linear_4591_11856" x1="2.054" y1="2.158" x2="48.464" y2="52"
            gradientUnits="userSpaceOnUse">
            <stop stop-color="#01A7F4" />
            <stop offset="1" stop-color="#01618E" />
        </linearGradient>
        <clipPath id="clip0_4591_11856">
            <rect width="52" height="52" rx="10" fill="white" />
        </clipPath>
    </defs>
</svg>