<svg width="20" height="21" viewBox="0 0 20 21" fill="inherit" xmlns="http://www.w3.org/2000/svg">
    <path fill-rule="evenodd" clip-rule="evenodd"
        d="M13.3333 3.20215H6.66667C4.36548 3.20215 2.5 5.06763 2.5 7.36881V14.0355C2.5 16.3366 4.36548 18.2021 6.66667 18.2021H13.3333C15.6345 18.2021 17.5 16.3366 17.5 14.0355V7.36881C17.5 5.06763 15.6345 3.20215 13.3333 3.20215ZM16.0417 14.0355C16.0371 15.5293 14.8272 16.7392 13.3333 16.7438H6.66667C5.17279 16.7392 3.96291 15.5293 3.95833 14.0355V7.36881C3.96291 5.87494 5.17279 4.66506 6.66667 4.66048H13.3333C14.8272 4.66506 16.0371 5.87494 16.0417 7.36881V14.0355ZM13.9583 7.57715C14.4186 7.57715 14.7917 7.20405 14.7917 6.74381C14.7917 6.28358 14.4186 5.91048 13.9583 5.91048C13.4981 5.91048 13.125 6.28358 13.125 6.74381C13.125 7.20405 13.4981 7.57715 13.9583 7.57715ZM10 6.95215C7.92893 6.95215 6.25 8.63108 6.25 10.7021C6.25 12.7732 7.92893 14.4521 10 14.4521C12.0711 14.4521 13.75 12.7732 13.75 10.7021C13.7522 9.7069 13.3578 8.75179 12.6541 8.04805C11.9503 7.34431 10.9952 6.94993 10 6.95215ZM7.70833 10.7021C7.70833 11.9678 8.73433 12.9938 10 12.9938C11.2657 12.9938 12.2917 11.9678 12.2917 10.7021C12.2917 9.43648 11.2657 8.41048 10 8.41048C8.73433 8.41048 7.70833 9.43648 7.70833 10.7021Z"
        fill="inherit" />
</svg>