<svg width="20" height="21" viewBox="0 0 20 21" fill="inherit" xmlns="http://www.w3.org/2000/svg">
    <path fill-rule="evenodd" clip-rule="evenodd"
        d="M3.75 3.20215C3.05964 3.20215 2.5 3.76179 2.5 4.45215V16.9521C2.5 17.6425 3.05964 18.2021 3.75 18.2021H16.25C16.9403 18.2021 17.5 17.6425 17.5 16.9521V4.45215C17.5 3.76179 16.9403 3.20215 16.25 3.20215H3.75ZM7.10063 6.53775C7.10532 7.33462 6.50884 7.82564 5.80102 7.82212C5.13422 7.81861 4.55297 7.28775 4.55649 6.53892C4.56001 5.83462 5.11665 5.26861 5.8397 5.28502C6.57329 5.30142 7.10532 5.83931 7.10063 6.53775ZM10.2331 8.83695H8.13309H8.13192V15.9701H10.3514V15.8037C10.3514 15.4871 10.3512 15.1705 10.3509 14.8537C10.3502 14.0089 10.3495 13.1631 10.3538 12.3186C10.355 12.1135 10.3643 11.9002 10.4171 11.7045C10.6151 10.9732 11.2726 10.501 12.0062 10.6171C12.4773 10.6908 12.7889 10.9639 12.9202 11.4081C13.0011 11.6857 13.0374 11.9846 13.0409 12.2741C13.0504 13.1471 13.0491 14.0201 13.0477 14.8931C13.0472 15.2013 13.0468 15.5096 13.0468 15.8178V15.969H15.2733V15.7979C15.2733 15.4212 15.2732 15.0446 15.2729 14.6681C15.2725 13.7268 15.272 12.7856 15.2745 11.844C15.2757 11.4186 15.23 10.9991 15.1257 10.5877C14.9698 9.97598 14.6476 9.46973 14.1237 9.10415C13.7522 8.84397 13.3444 8.6764 12.8886 8.65765C12.8367 8.65549 12.7843 8.65267 12.7317 8.64982C12.4987 8.63722 12.2618 8.62442 12.0389 8.66937C11.4014 8.7971 10.8413 9.0889 10.4182 9.60332C10.3691 9.66232 10.321 9.72223 10.2492 9.81165L10.2331 9.8319V8.83695ZM4.7347 15.9725H6.94368V8.84159H4.7347V15.9725Z"
        fill="inherit" />
</svg>