<svg width="148" height="44" viewBox="0 0 148 44" fill="none" xmlns="http://www.w3.org/2000/svg">
    <path
        d="M10.6467 2.33546C15.5233 -0.141731 21.1955 -0.734012 26.4103 0.972182C31.3657 2.63447 35.462 6.19048 37.8049 10.8628C39.2979 13.8068 40.0381 17.0746 39.9592 20.3745C39.9975 23.2561 39.2548 26.1369 38.0461 28.7398C37.8149 29.2376 37.5595 29.8516 37.2258 30.2847C37.097 30.507 36.9571 30.7142 36.8068 30.9224C36.2608 31.7219 35.6823 32.4921 35.0295 33.2085C34.4983 33.8357 33.8604 34.4155 33.2385 34.9517C30.9309 36.9411 28.2945 38.4824 25.3449 39.2886C20.24 40.6831 14.7912 40.0116 10.1769 37.4204C6.24881 35.1843 3.16984 31.7126 1.41912 27.5454C1.19303 26.9922 0.947989 26.4231 0.791186 25.8462C0.297256 23.937 -0.0704888 21.9657 0.0118888 19.9829C0.409906 22.1857 1.37326 23.3895 3.20525 24.6626C5.88748 26.5265 9.1908 27.5809 12.2902 28.5152C12.2982 29.1537 12.3034 29.7926 12.3049 30.4312L13.5529 30.7769C14.6292 30.9571 15.7179 31.2217 16.7843 31.4575C18.148 31.7108 19.5183 31.9271 20.8937 32.106C21.695 32.2041 22.5186 32.2388 23.3136 32.3638C24.2676 32.5412 25.5215 32.5222 26.4982 32.5454C26.4916 32.3598 26.4985 32.1734 26.5021 31.9878L26.5256 32.5396C29.167 32.5692 31.3719 32.409 33.9064 31.6528C34.1778 31.5443 34.3932 31.4122 34.6154 31.2251C35.5554 30.0312 36.5759 28.5844 36.8078 27.0474C34.0592 28.3277 30.678 28.4619 27.6984 28.1528L27.6945 23.5884L27.6877 22.3823L28.6047 22.5278C29.2248 19.4303 29.4719 14.8565 28.7765 11.7525C24.2289 10.187 19.4541 9.38382 14.6447 9.37453C13.2865 12.4365 12.2809 16.3237 12.2912 19.6841C12.3016 21.1112 12.305 22.5392 12.301 23.9663C11.2201 23.7335 10.0802 23.3249 9.04704 22.9321C6.43495 21.9392 2.41034 20.2714 1.22478 17.5943C0.312673 15.5341 1.07116 13.7863 1.83415 11.8423C2.09139 11.056 2.54376 10.2985 2.96892 9.59132C4.79121 6.49592 7.45324 3.97999 10.6467 2.33546ZM31.7209 33.9712C29.744 34.3428 27.6765 34.248 25.6808 34.1196C25.4039 34.346 25.1376 34.8963 24.8918 35.1997C23.8612 36.4719 22.6675 37.4623 21.1896 38.1714C24.9946 38.0287 28.8296 36.4369 31.7209 33.9712ZM12.5324 31.729C13.2303 33.9851 14.1293 36.2813 16.3439 37.4439C17.4284 38.013 18.5556 38.0437 19.7121 37.6724C21.2666 37.1732 22.592 36.0862 23.634 34.856C23.8161 34.6408 24.1179 34.3001 24.2131 34.0327C24.2181 34.0183 24.2192 34.0029 24.2218 33.9878C22.9484 33.9156 21.6573 33.7021 20.3986 33.4956C17.7687 33.0642 15.0733 32.5392 12.5324 31.729ZM3.98845 28.2905C4.05725 28.689 4.45779 29.2179 4.67497 29.562C6.06581 31.7667 7.59765 33.5225 9.73943 35.0405C11.0532 35.9716 12.4454 36.6536 13.9279 37.2671C12.6319 35.9552 11.7397 34.5167 11.2385 32.728C11.1006 32.2359 11.0562 31.7039 10.8986 31.2222C10.4087 31.1376 9.85591 30.8804 9.38884 30.7046C7.53521 30.0255 5.73055 29.2192 3.98845 28.2905ZM30.3381 12.4409C30.6365 14.8951 30.6365 17.3764 30.339 19.8306C30.2336 20.7684 30.0172 21.7144 29.9465 22.6509C32.0733 22.7492 34.6239 22.6466 36.551 21.6714C37.1301 21.3451 37.788 20.8858 37.9777 20.2095C38.1663 19.536 37.626 18.4393 37.2844 17.8667C36.0316 15.7674 33.8094 14.1799 31.673 13.064C31.251 12.8436 30.7938 12.5788 30.3381 12.4409ZM12.5441 9.40871C12.3417 9.41439 12.133 9.40977 11.9318 9.43019C9.8675 9.60482 7.74945 9.83547 5.8283 10.6626C5.48203 10.8118 5.0773 10.9738 4.82634 11.2661C4.30242 11.8768 3.96286 12.9592 3.73162 13.7261C4.47041 14.6757 5.32866 15.3372 6.32927 15.9839C7.5338 16.7635 8.89211 17.3375 10.2072 17.8999C10.5336 15.8969 10.9348 13.9818 11.5705 12.0503C11.8647 11.1562 12.2405 10.2967 12.5441 9.40871ZM26.2228 2.51222C28.0308 4.04314 29.0039 6.37804 29.6047 8.61964C29.7659 9.22176 29.8541 9.84976 30.0314 10.4448C32.8465 11.812 35.5978 13.4467 37.5881 15.9175C37.6284 15.9675 37.6098 15.9476 37.6594 15.9888C36.955 11.5912 34.3426 7.39485 30.7336 4.78859C29.5215 3.91332 27.648 2.86684 26.2228 2.51222ZM24.2033 2.44191C23.5188 2.0081 22.7164 1.6947 21.8937 1.77296C20.0374 1.95712 18.4621 3.36598 17.3244 4.74757C16.6725 5.53925 16.08 6.4407 15.5793 7.33546C18.2136 7.40651 21.0266 7.77575 23.5881 8.41261C25.2513 8.7485 26.8795 9.24077 28.4504 9.88234C27.8492 7.14117 26.6778 4.01015 24.2033 2.44191ZM18.0773 1.81886C14.3192 2.41407 10.8734 4.00594 8.14763 6.68312C7.71283 7.11014 7.153 7.58964 6.81853 8.09523C6.79108 8.13662 6.76078 8.17985 6.75505 8.22999C8.99804 7.49538 11.2226 7.41216 13.5568 7.2798C14.3272 5.86737 15.1628 4.52581 16.2843 3.36183C16.6572 2.97482 17.0399 2.62415 17.4718 2.30324C17.5916 2.21436 18.043 1.94376 18.0773 1.81886Z"
        fill="#2BA2D3" />
    <path
        d="M39.9593 20.375C39.9976 23.2567 39.2552 26.1372 38.0465 28.7401C37.8153 29.2379 37.5592 29.8514 37.2254 30.2845C37.0966 30.5068 36.9573 30.7145 36.807 30.9228C36.3784 31.1003 35.8345 31.2875 35.3673 31.2946C35.1088 31.2917 34.8697 31.2703 34.615 31.2255C35.5552 30.0315 36.5759 28.5847 36.8078 27.0475C34.0592 28.3278 30.678 28.4617 27.6984 28.1527L27.6947 23.5885C28.2459 23.6465 28.7936 23.7455 29.3465 23.7887C31.9535 23.992 35.1851 23.8966 37.5694 22.7133C38.3354 22.3333 39.6012 21.4386 39.8794 20.588C39.9031 20.5157 39.9317 20.4459 39.9593 20.375Z"
        fill="#319756" />
    <path
        d="M35.3673 31.2946L35.3893 31.2131C35.7582 30.9898 36.1807 30.841 36.5668 30.6461C36.7917 30.5327 36.9874 30.367 37.2254 30.2845C37.0966 30.5068 36.9573 30.7145 36.807 30.9228C36.3784 31.1003 35.8345 31.2875 35.3673 31.2946Z"
        fill="#C35245" />
    <path
        d="M1.83378 11.8424C1.83938 11.8577 1.84616 11.8727 1.8506 11.8885C1.87152 11.9628 1.8711 12.0182 1.87353 12.0939C1.91612 13.4119 2.8868 14.3927 3.80192 15.2345C5.60705 16.8952 8.07903 17.9233 10.3703 18.7199C10.8958 18.9027 11.8544 19.0783 12.2868 19.362C12.286 19.4698 12.2832 19.5769 12.291 19.6846C12.3015 21.1117 12.3047 22.5389 12.3007 23.966C11.2198 23.7332 10.0803 23.3248 9.04711 22.932C6.43498 21.939 2.41066 20.2712 1.22518 17.594C0.313071 15.5339 1.07079 13.7863 1.83378 11.8424Z"
        fill="#319756" />
    <path
        d="M0.0115755 19.9826C0.409555 22.1856 1.37279 23.3895 3.20487 24.6627C5.88721 26.5268 9.19105 27.5805 12.2906 28.5148C12.2986 29.1535 12.3033 29.792 12.3047 30.4307L13.5533 30.777C14.6295 30.9573 15.7178 31.222 16.7843 31.4578C18.1481 31.7111 19.5185 31.9274 20.894 32.1063C21.6953 32.2044 22.5183 32.2389 23.3133 32.3639C24.2673 32.5414 25.5211 32.5226 26.4979 32.5458C26.4913 32.3601 26.4981 32.1738 26.5017 31.988L26.5254 32.5393C29.167 32.5689 31.3719 32.4089 33.9065 31.6526C34.1779 31.5441 34.3927 31.4126 34.615 31.2255C34.8696 31.2703 35.1088 31.2916 35.3672 31.2946C35.8344 31.2875 36.3783 31.1003 36.8069 30.9228C36.2609 31.7223 35.682 32.4918 35.0292 33.2082C34.6269 33.1279 33.9249 33.5599 33.4763 33.6666C32.901 33.8033 32.287 33.8117 31.7209 33.9711C29.7438 34.3428 27.6761 34.2479 25.6803 34.1195C25.2805 33.9656 24.6545 34.0081 24.2213 33.9875C22.9479 33.9152 21.6574 33.7019 20.3987 33.4954C17.7688 33.064 15.0735 32.5391 12.5325 31.729C12.2821 31.5769 11.2488 31.3302 10.8984 31.2219C10.4085 31.1373 9.85555 30.8807 9.38845 30.7049C7.53469 30.0257 5.73031 29.2189 3.98811 28.2902C3.69724 28.0512 3.34562 27.8816 3.02454 27.686C2.34883 27.2743 1.4814 26.6807 0.995813 26.0407C0.929706 25.9536 0.883432 25.9054 0.79105 25.8463C0.29709 23.937 -0.0708488 21.9655 0.0115755 19.9826Z"
        fill="#319756" />
    <path
        d="M34.6151 31.2255C34.8698 31.2703 35.1089 31.2917 35.3674 31.2946L35.3752 31.3916C34.8191 31.6021 34.6001 31.5078 34.1044 31.9716C33.9764 32.0915 33.7933 32.332 33.6258 32.3715C33.5481 32.2992 33.5567 32.295 33.5464 32.1876C33.6379 31.9474 33.7525 31.8435 33.9067 31.6526C34.1781 31.5441 34.3929 31.4127 34.6151 31.2255Z"
        fill="#2A9BA6" />
    <path
        d="M20.0363 12.6066C22.2843 13.3166 24.8218 14.7648 25.9484 16.9113C26.2254 17.4392 26.3932 17.9856 26.463 18.5773C26.5407 19.2351 26.5158 19.9166 26.5138 20.5783L26.5099 23.2707C26.5102 26.1753 26.5387 29.0832 26.5021 31.9875C26.4985 32.1733 26.4916 32.3603 26.4982 32.5461C25.5215 32.5228 24.2676 32.5409 23.3136 32.3635L23.3156 25.176C23.316 24.1095 23.4295 22.2844 23.2091 21.3176C23.0728 20.7196 22.7374 20.1959 22.3126 19.7599C21.7261 19.158 20.9617 18.751 20.1085 18.7433C19.2569 18.7359 18.4579 19.1492 17.8664 19.7443C17.4148 20.1988 17.0645 20.779 16.9152 21.4045C16.6661 22.4485 16.7824 24.1377 16.7824 25.2433L16.7834 31.4562C15.7173 31.2205 14.6287 30.9567 13.5529 30.7766L13.5587 22.9338L13.5568 20.5695C13.5541 19.7336 13.5013 18.875 13.7111 18.0578C13.9722 17.0408 14.5615 16.1668 15.2941 15.4279C16.5347 14.1767 18.3236 13.0954 20.0363 12.6066ZM20.8947 32.1066L20.8937 32.1057L20.8947 32.1066ZM16.7843 31.4572V31.4582V31.4572Z"
        fill="#104E77" />
    <g clip-path="url(#clip0_4520_20565)">
        <path
            d="M78.1716 20.9801C78.1716 19.4268 78.4504 18.0063 79.008 16.7318C79.5656 15.4573 80.3223 14.3687 81.2782 13.466C82.234 12.5632 83.3758 11.8596 84.6768 11.3684C85.9911 10.8772 87.3851 10.6249 88.8587 10.6249C90.3323 10.6249 91.7262 10.8772 93.0405 11.3684C94.3549 11.8596 95.4833 12.5632 96.4392 13.466C97.395 14.3687 98.1517 15.4573 98.7093 16.7318C99.2669 18.0063 99.5457 19.4135 99.5457 20.9801C99.5457 22.5466 99.2669 23.9671 98.7093 25.2416C98.1517 26.5293 97.395 27.6312 96.4392 28.5473C95.4833 29.4633 94.3416 30.1802 93.0405 30.6979C91.7262 31.2157 90.3323 31.4812 88.8587 31.4812C87.3851 31.4812 85.9911 31.2157 84.6768 30.6979C83.3625 30.1802 82.234 29.4633 81.2782 28.5473C80.3223 27.6312 79.5656 26.5293 79.008 25.2416C78.4504 23.9538 78.1716 22.5333 78.1716 20.9801ZM83.1766 20.9801C83.1766 21.7501 83.2961 22.5068 83.5218 23.2768C83.7475 24.0468 84.1059 24.7238 84.5706 25.3212C85.0352 25.9187 85.6194 26.4099 86.3363 26.7949C87.0532 27.1799 87.8895 27.3657 88.8852 27.3657C89.8809 27.3657 90.7173 27.1799 91.4342 26.7949C92.1511 26.4099 92.7352 25.9187 93.1999 25.3212C93.6645 24.7238 94.0097 24.0335 94.2486 23.2768C94.4743 22.5068 94.5938 21.7501 94.5938 20.9801C94.5938 20.2101 94.4743 19.4533 94.2486 18.6966C94.0097 17.9399 93.6645 17.2628 93.1999 16.6654C92.7352 16.068 92.1511 15.5768 91.4342 15.2051C90.7173 14.8334 89.8809 14.6475 88.8852 14.6475C87.8895 14.6475 87.0532 14.8334 86.3363 15.2051C85.6194 15.5768 85.0352 16.0547 84.5706 16.6654C84.1059 17.2628 83.7608 17.9399 83.5218 18.6966C83.2828 19.4533 83.1766 20.2101 83.1766 20.9801Z"
            fill="#2BA2D3" />
    </g>
    <g clip-path="url(#clip1_4520_20565)">
        <path
            d="M125.965 20.9801C125.965 19.4268 126.243 18.0063 126.801 16.7318C127.358 15.4573 128.115 14.3687 129.071 13.466C130.027 12.5632 131.169 11.8596 132.47 11.3684C133.784 10.8772 135.178 10.6249 136.652 10.6249C138.125 10.6249 139.519 10.8772 140.833 11.3684C142.148 11.8596 143.276 12.5632 144.232 13.466C145.188 14.3687 145.945 15.4573 146.502 16.7318C147.06 18.0063 147.339 19.4135 147.339 20.9801C147.339 22.5466 147.06 23.9671 146.502 25.2416C145.945 26.5293 145.188 27.6312 144.232 28.5473C143.276 29.4633 142.134 30.1802 140.833 30.6979C139.519 31.2157 138.125 31.4812 136.652 31.4812C135.178 31.4812 133.784 31.2157 132.47 30.6979C131.155 30.1802 130.027 29.4633 129.071 28.5473C128.115 27.6312 127.358 26.5293 126.801 25.2416C126.243 23.9538 125.965 22.5333 125.965 20.9801ZM130.97 20.9801C130.97 21.7501 131.089 22.5068 131.315 23.2768C131.54 24.0468 131.899 24.7238 132.363 25.3212C132.828 25.9187 133.412 26.4099 134.129 26.7949C134.846 27.1799 135.682 27.3657 136.678 27.3657C137.674 27.3657 138.51 27.1799 139.227 26.7949C139.944 26.4099 140.528 25.9187 140.993 25.3212C141.457 24.7238 141.803 24.0335 142.042 23.2768C142.267 22.5068 142.387 21.7501 142.387 20.9801C142.387 20.2101 142.267 19.4533 142.042 18.6966C141.803 17.9399 141.457 17.2628 140.993 16.6654C140.528 16.068 139.944 15.5768 139.227 15.2051C138.51 14.8334 137.674 14.6475 136.678 14.6475C135.682 14.6475 134.846 14.8334 134.129 15.2051C133.412 15.5768 132.828 16.0547 132.363 16.6654C131.899 17.2628 131.554 17.9399 131.315 18.6966C131.076 19.4533 130.97 20.2101 130.97 20.9801Z"
            fill="#2BA2D3" />
    </g>
    <g clip-path="url(#clip2_4520_20565)">
        <path
            d="M73.2861 16.6256H72.556C71.8258 20.4225 70.1663 22.9316 70.1663 22.9316H70.1531C70.0203 23.1573 69.9008 23.3697 69.7415 23.5689C69.2105 24.2725 68.5998 24.8832 67.8962 25.4009C67.1926 25.9187 66.4093 26.3169 65.5596 26.5957C64.71 26.8745 63.8205 27.0206 62.8912 27.0206C61.6698 27.0206 60.5281 26.7683 59.466 26.2638C58.404 25.7594 57.4747 25.0956 56.6781 24.2725C55.8816 23.4494 55.2576 22.4802 54.793 21.3783C54.3283 20.2765 54.1026 19.1215 54.1026 17.9001C54.1026 16.6787 54.3283 15.5503 54.793 14.4351C55.2576 13.3199 55.8816 12.3508 56.6781 11.5277C57.4747 10.7046 58.404 10.0275 59.466 9.53633C60.5281 9.03185 61.6698 8.77961 62.8912 8.77961C64.3515 8.77961 65.7189 9.16461 66.9669 9.94788C67.6041 10.3462 68.175 10.7843 68.6927 11.2755V11.2356L69.9309 9.92658C71.159 8.62817 71.0873 6.53498 69.5291 5.6598C67.5112 4.53135 65.3074 3.97377 62.8912 3.97377C60.9928 3.97377 59.2005 4.34549 57.5145 5.07566C55.8285 5.80583 54.3548 6.80152 53.0936 8.06272C51.8324 9.32392 50.8235 10.7975 50.0933 12.4968C49.3499 14.1961 48.9914 15.9884 48.9914 17.9001C48.9914 19.8118 49.3631 21.604 50.0933 23.2768C50.8235 24.9495 51.8324 26.4364 53.0936 27.6844C54.3548 28.9456 55.8285 29.9412 57.5145 30.6714C59.2005 31.4016 60.9928 31.7733 62.8912 31.7733C64.6303 31.7733 66.2765 31.4812 67.8563 30.8971C69.4362 30.313 70.8168 29.5031 72.0249 28.4676C73.233 27.4321 74.2155 26.1975 74.9854 24.7504C75.7554 23.3166 76.2068 21.7501 76.3528 20.064C76.5653 18.232 75.1315 16.6256 73.2861 16.6256Z"
            fill="#2BA2D3" />
        <path d="M63.1036 21.2456H68.6263C69.6486 19.772 70.1929 18.0328 70.4717 16.6389H63.1036V21.2456Z"
            fill="#319756" />
    </g>
    <g clip-path="url(#clip3_4520_20565)">
        <path
            d="M116.804 35.7959C116.565 36.5659 116.22 37.2429 115.755 37.8403C115.291 38.4377 114.707 38.929 113.99 39.3139C113.273 39.6989 112.436 39.8848 111.441 39.8848C110.445 39.8848 109.609 39.6989 108.892 39.3139C108.175 38.929 107.591 38.4377 107.126 37.8403C106.662 37.2429 106.316 36.5526 106.077 35.7959C105.71 34.6088 104.737 33.5921 103.494 33.5921H100.741C100.741 35.1055 101.033 36.4995 101.577 37.7607C102.134 39.0484 102.891 40.1503 103.847 41.0664C104.803 41.9824 105.945 42.6993 107.246 43.217C108.547 43.7348 109.954 44.0003 111.428 44.0003C112.901 44.0003 114.295 43.7348 115.609 43.217C116.924 42.6993 118.052 41.9824 119.008 41.0664C119.964 40.1503 120.721 39.0484 121.278 37.7607C121.822 36.4995 122.101 35.1188 122.115 33.5921H117.11C117.11 34.3222 116.99 35.0524 116.764 35.7959H116.804Z"
            fill="#319756" />
        <path
            d="M124.504 12.603C117.149 12.5101 116.685 19.387 117.003 20.8075H116.977C117.07 21.2987 117.149 21.8032 117.149 22.2944C117.149 23.0644 117.03 23.8211 116.804 24.5911C116.565 25.3611 116.22 26.0381 115.755 26.6356C115.291 27.233 114.707 27.7242 113.99 28.1092C113.273 28.4942 112.436 28.68 111.441 28.68C110.445 28.68 109.609 28.4942 108.892 28.1092C108.175 27.7242 107.591 27.233 107.126 26.6356C106.662 26.0381 106.316 25.3478 106.077 24.5911C105.838 23.8211 105.732 23.0644 105.732 22.2944C105.732 21.5244 105.852 20.7677 106.077 20.0109C106.303 19.2542 106.662 18.5771 107.126 17.9797C107.591 17.3823 108.175 16.8911 108.892 16.5194C109.609 16.1477 110.445 15.9618 111.441 15.9618C112.436 15.9618 113.273 16.1477 113.99 16.5194C114.547 16.8115 115.012 17.1965 115.424 17.6346C115.437 17.5682 115.45 17.4885 115.463 17.4222C115.729 16.3468 116.167 15.391 116.778 14.5679C117.017 14.236 117.309 13.9439 117.614 13.6784C117.003 13.2934 116.34 12.9482 115.623 12.6827C114.308 12.1915 112.914 11.9392 111.441 11.9392C109.967 11.9392 108.573 12.1915 107.259 12.6827C105.945 13.1739 104.816 13.8775 103.86 14.7803C102.904 15.683 102.148 16.7716 101.59 18.0461C101.033 19.3206 100.754 20.7278 100.754 22.2944C100.754 23.8609 101.033 25.2814 101.59 26.5559C102.148 27.8437 102.904 28.9455 103.86 29.8616C104.816 30.7776 105.958 31.4945 107.259 32.0123C108.56 32.53 109.967 32.7955 111.441 32.7955C112.914 32.7955 114.308 32.53 115.623 32.0123C116.937 31.4945 118.065 30.7776 119.021 29.8616C119.977 28.9455 120.734 27.8437 121.291 26.5559C121.849 25.2682 122.128 23.8476 122.128 22.2944C122.128 22.0289 122.115 21.7633 122.088 21.5111H122.115V21.2456C122.115 20.7544 122.154 20.2499 122.234 19.7321C122.314 19.2144 122.473 18.7365 122.712 18.2984C122.938 17.8603 123.283 17.5018 123.721 17.2363C124.132 16.9841 124.664 16.8513 125.314 16.838H127.651V15.776C127.651 14.0236 126.23 12.603 124.478 12.603H124.504Z"
            fill="#2BA2D3" />
    </g>
    <defs>
        <clipPath id="clip0_4520_20565">
            <rect width="21.4139" height="20.843" fill="white" transform="translate(78.1716 10.6382)" />
        </clipPath>
        <clipPath id="clip1_4520_20565">
            <rect width="21.4139" height="20.843" fill="white" transform="translate(125.965 10.6382)" />
        </clipPath>
        <clipPath id="clip2_4520_20565">
            <rect width="27.4013" height="27.7863" fill="white" transform="translate(48.9649 4.00032)" />
        </clipPath>
        <clipPath id="clip3_4520_20565">
            <rect width="26.9366" height="32.0345" fill="white" transform="translate(100.741 11.9658)" />
        </clipPath>
    </defs>
</svg>