<svg width="1224" height="402" viewBox="0 0 1224 402" fill="none" xmlns="http://www.w3.org/2000/svg">
<path d="M107.508 24.2004C156.317 -0.593593 213.089 -6.52202 265.283 10.5549C314.881 27.1924 355.882 62.7782 379.331 109.542C394.276 139.01 401.683 171.722 400.892 204.752C401.275 233.594 393.845 262.424 381.747 288.476C379.433 293.458 376.87 299.6 373.529 303.934C372.24 306.159 370.845 308.238 369.341 310.323C365.051 312.099 359.607 313.972 354.932 314.043C352.345 314.014 349.951 313.801 347.402 313.353C356.812 301.402 367.028 286.921 369.349 271.535C341.839 284.35 307.998 285.69 278.176 282.597L278.138 236.915L278.068 224.845L287.245 226.298C293.452 195.295 295.927 149.52 288.967 118.452C243.451 102.784 195.661 94.7407 147.525 94.6477C133.93 125.296 123.863 164.207 123.967 197.842C124.072 212.125 124.104 226.409 124.064 240.693C113.245 238.363 101.841 234.275 91.5001 230.344C65.356 220.406 25.0774 203.713 13.212 176.917C4.08302 156.298 11.6673 138.807 19.3038 119.351C21.8784 111.481 26.4077 103.899 30.6632 96.8215C48.9019 65.8401 75.5458 40.6602 107.508 24.2004ZM304.595 125.34C307.582 149.904 307.587 174.738 304.609 199.302C303.554 208.688 301.386 218.151 300.678 227.525C321.966 228.509 347.492 227.484 366.779 217.722C372.578 214.456 379.164 209.861 381.061 203.09C382.948 196.35 377.542 185.378 374.122 179.647C361.584 158.633 339.337 142.744 317.952 131.574C313.728 129.368 309.156 126.719 304.595 125.34ZM126.501 94.9944C124.475 95.0513 122.387 95.0029 120.373 95.2073C99.7107 96.9552 78.5089 99.2606 59.2794 107.54C55.8139 109.034 51.7706 110.654 49.2589 113.579C44.0135 119.691 40.6168 130.523 38.3019 138.199C45.6964 147.705 54.278 154.324 64.2931 160.797C76.3501 168.602 89.9433 174.352 103.108 179.982C106.375 159.933 110.392 140.764 116.755 121.431C119.7 112.482 123.463 103.882 126.501 94.9944ZM263.411 25.9709C281.507 41.2935 291.242 64.6545 297.255 87.0901C298.87 93.1178 299.749 99.4004 301.525 105.358C329.701 119.041 357.236 135.407 377.156 160.137C377.561 160.638 377.372 160.439 377.868 160.852C370.819 116.837 344.678 74.8358 308.556 48.7502C296.424 39.9897 277.676 29.5204 263.411 25.9709ZM243.196 25.2629C236.345 20.9204 228.312 17.7818 220.076 18.5657C201.495 20.4091 185.728 34.5148 174.341 48.344C167.817 56.2677 161.893 65.2879 156.881 74.2434C183.248 74.9545 211.401 78.6454 237.038 85.0198C253.685 88.3816 269.977 93.3075 285.699 99.7288C279.683 72.2933 267.962 40.9591 243.196 25.2629ZM181.879 19.0295C144.265 24.9869 109.777 40.9173 82.4952 67.7131C78.1436 71.9869 72.546 76.7809 69.1984 81.8411C68.922 82.2582 68.6119 82.6936 68.5558 83.1995C91.0082 75.8452 113.275 75.0098 136.641 73.6848C144.351 59.5484 152.712 46.1238 163.938 34.4739C167.67 30.6004 171.492 27.0881 175.816 23.8762C177.009 22.9893 181.535 20.2808 181.879 19.0295Z" fill="#2BA2D3"/>
<path d="M1.06519 200.825C5.04846 222.874 14.6893 234.925 33.0261 247.667C59.873 266.324 92.9409 276.871 123.964 286.222C124.043 292.614 124.09 299.005 124.104 305.397L136.6 308.864C147.373 310.668 158.265 313.317 168.939 315.677C182.589 318.212 196.306 320.377 210.073 322.167C218.092 323.15 226.329 323.495 234.286 324.747C243.835 326.523 256.383 326.334 266.16 326.567C266.094 324.708 266.163 322.843 266.199 320.984L266.435 326.501C292.874 326.798 314.943 325.196 340.311 317.627C343.027 316.541 345.178 315.225 347.402 313.352C349.951 313.8 352.344 314.014 354.931 314.043C359.607 313.972 365.051 312.099 369.341 310.323C363.876 318.325 358.082 326.026 351.548 333.197C346.231 339.474 339.849 345.275 333.625 350.642C310.528 370.555 284.144 385.981 254.621 394.049C203.527 408.008 148.991 401.294 102.807 375.359C63.4914 352.979 32.6738 318.23 15.1511 276.521C12.8882 270.983 10.4364 265.288 8.86695 259.513C3.92304 240.403 0.240229 220.671 1.06519 200.825ZM318.438 340.833C298.65 344.553 277.955 343.602 257.979 342.317C255.207 344.582 252.543 350.088 250.083 353.125C239.767 365.858 227.824 375.779 213.031 382.876C251.115 381.448 289.5 365.512 318.438 340.833ZM126.386 318.391C133.37 340.972 142.366 363.955 164.531 375.59C175.386 381.288 186.668 381.59 198.244 377.873C213.803 372.877 227.068 362.002 237.497 349.689C239.32 347.536 242.343 344.127 243.296 341.451C243.347 341.306 243.349 341.147 243.376 340.996C230.63 340.273 217.715 338.137 205.117 336.071C178.794 331.753 151.818 326.5 126.386 318.391ZM40.8679 283.973C41.5549 287.962 45.5707 293.257 47.7449 296.703C61.6653 318.769 76.9892 336.342 98.4255 351.536C111.576 360.856 125.508 367.676 140.347 373.817C127.376 360.685 118.453 346.29 113.436 328.386C112.056 323.46 111.609 318.137 110.031 313.315C105.127 312.468 99.5927 309.901 94.9177 308.141C76.3643 301.344 58.3049 293.269 40.8679 283.973Z" fill="#2BA2D3"/>
<path d="M201.489 127C223.99 134.107 249.39 148.604 260.664 170.09C263.437 175.374 265.116 180.834 265.815 186.756C266.593 193.341 266.345 200.165 266.325 206.79L266.284 233.738C266.287 262.811 266.567 291.914 266.201 320.984C266.165 322.843 266.096 324.708 266.163 326.567C256.386 326.334 243.837 326.522 234.289 324.746L234.309 252.807C234.313 242.134 235.451 223.866 233.246 214.188C231.881 208.202 228.524 202.958 224.272 198.594C218.401 192.568 210.748 188.496 202.207 188.42C193.683 188.346 185.688 192.479 179.768 198.435C175.248 202.984 171.746 208.791 170.251 215.051C167.757 225.501 168.918 242.411 168.918 253.479L168.941 315.676C158.267 313.316 147.375 310.667 136.603 308.863L136.662 230.365L136.636 206.698C136.609 198.331 136.081 189.745 138.181 181.566C140.794 171.385 146.691 162.639 154.024 155.243C166.441 142.718 184.346 131.892 201.489 127Z" fill="#104E77"/>
<path d="M19.304 119.352C19.3601 119.505 19.4279 119.656 19.4723 119.813C19.6817 120.557 19.6775 121.111 19.7018 121.869C20.1281 135.061 29.8434 144.877 39.0026 153.302C57.0697 169.924 81.811 180.214 104.743 188.187C110.004 190.016 119.598 191.774 123.926 194.613C123.918 195.693 123.889 196.765 123.968 197.843C124.073 212.126 124.104 226.41 124.064 240.694C113.246 238.364 101.841 234.276 91.5004 230.345C65.3562 220.407 25.0779 203.714 13.2126 176.918C4.08361 156.299 11.6674 138.808 19.304 119.352Z" fill="#319756"/>
<path d="M400.893 204.752C401.276 233.594 393.846 262.424 381.748 288.476C379.434 293.458 376.871 299.599 373.53 303.933C372.241 306.159 370.847 308.237 369.342 310.322C365.053 312.098 359.609 313.972 354.933 314.043C352.346 314.014 349.952 313.8 347.403 313.352C356.813 301.402 367.029 286.921 369.35 271.535C341.84 284.35 307.999 285.69 278.177 282.597L278.139 236.915C283.657 237.496 289.138 238.487 294.672 238.919C320.765 240.953 353.109 239.999 376.973 228.156C384.64 224.352 397.308 215.397 400.093 206.884C400.33 206.161 400.616 205.461 400.893 204.752Z" fill="#319756"/>
<path d="M354.932 314.043L355.153 313.228C358.845 310.993 363.073 309.503 366.938 307.553C369.189 306.418 371.148 304.759 373.53 303.934C372.241 306.159 370.846 308.238 369.342 310.322C365.052 312.099 359.608 313.972 354.932 314.043Z" fill="#C35245"/>
<g clip-path="url(#clip0_5_4735)">
<path d="M704 178.348C704 166.699 706.091 156.045 710.273 146.486C714.455 136.928 720.13 128.763 727.299 121.992C734.468 115.222 743.031 109.944 752.788 106.26C762.646 102.576 773.1 100.685 784.153 100.685C795.205 100.685 805.659 102.576 815.517 106.26C825.374 109.944 833.837 115.222 841.006 121.992C848.175 128.763 853.851 136.928 858.032 146.486C862.214 156.045 864.305 166.599 864.305 178.348C864.305 190.097 862.214 200.751 858.032 210.31C853.851 219.968 848.175 228.232 841.006 235.102C833.837 241.972 825.274 247.349 815.517 251.232C805.659 255.115 795.205 257.107 784.153 257.107C773.1 257.107 762.646 255.115 752.788 251.232C742.931 247.349 734.468 241.972 727.299 235.102C720.13 228.232 714.455 219.968 710.273 210.31C706.091 200.651 704 189.998 704 178.348ZM741.537 178.348C741.537 184.123 742.433 189.798 744.126 195.573C745.819 201.348 748.507 206.426 751.992 210.907C755.477 215.388 759.858 219.072 765.235 221.959C770.611 224.847 776.884 226.241 784.352 226.241C791.819 226.241 798.092 224.847 803.469 221.959C808.846 219.072 813.227 215.388 816.712 210.907C820.196 206.426 822.785 201.249 824.577 195.573C826.27 189.798 827.166 184.123 827.166 178.348C827.166 172.573 826.27 166.898 824.577 161.222C822.785 155.547 820.196 150.469 816.712 145.988C813.227 141.508 808.846 137.824 803.469 135.036C798.092 132.248 791.819 130.854 784.352 130.854C776.884 130.854 770.611 132.248 765.235 135.036C759.858 137.824 755.477 141.408 751.992 145.988C748.507 150.469 745.918 155.547 744.126 161.222C742.334 166.898 741.537 172.573 741.537 178.348Z" fill="#104E77"/>
</g>
<g clip-path="url(#clip1_5_4735)">
<path d="M1062.45 178.348C1062.45 166.699 1064.54 156.045 1068.72 146.486C1072.9 136.928 1078.58 128.763 1085.75 121.992C1092.91 115.222 1101.48 109.944 1111.24 106.26C1121.09 102.576 1131.55 100.685 1142.6 100.685C1153.65 100.685 1164.11 102.576 1173.96 106.26C1183.82 109.944 1192.28 115.222 1199.45 121.992C1206.62 128.763 1212.3 136.928 1216.48 146.486C1220.66 156.045 1222.75 166.599 1222.75 178.348C1222.75 190.097 1220.66 200.751 1216.48 210.31C1212.3 219.968 1206.62 228.232 1199.45 235.102C1192.28 241.972 1183.72 247.349 1173.96 251.232C1164.11 255.115 1153.65 257.107 1142.6 257.107C1131.55 257.107 1121.09 255.115 1111.24 251.232C1101.38 247.349 1092.91 241.972 1085.75 235.102C1078.58 228.232 1072.9 219.968 1068.72 210.31C1064.54 200.651 1062.45 189.998 1062.45 178.348ZM1099.98 178.348C1099.98 184.123 1100.88 189.798 1102.57 195.573C1104.27 201.348 1106.95 206.426 1110.44 210.907C1113.92 215.388 1118.3 219.072 1123.68 221.959C1129.06 224.847 1135.33 226.241 1142.8 226.241C1150.27 226.241 1156.54 224.847 1161.92 221.959C1167.29 219.072 1171.67 215.388 1175.16 210.907C1178.64 206.426 1181.23 201.249 1183.02 195.573C1184.72 189.798 1185.61 184.123 1185.61 178.348C1185.61 172.573 1184.72 166.898 1183.02 161.222C1181.23 155.547 1178.64 150.469 1175.16 145.988C1171.67 141.508 1167.29 137.824 1161.92 135.036C1156.54 132.248 1150.27 130.854 1142.8 130.854C1135.33 130.854 1129.06 132.248 1123.68 135.036C1118.3 137.824 1113.92 141.408 1110.44 145.988C1106.95 150.469 1104.36 155.547 1102.57 161.222C1100.78 166.898 1099.98 172.573 1099.98 178.348Z" fill="#2BA2D3"/>
</g>
<g clip-path="url(#clip2_5_4735)">
<path d="M667.359 145.69H661.882C656.406 174.166 643.96 192.985 643.96 192.985H643.861C642.865 194.677 641.969 196.27 640.774 197.764C636.791 203.041 632.211 207.621 626.934 211.504C621.657 215.388 615.782 218.375 609.41 220.466C603.037 222.557 596.366 223.652 589.397 223.652C580.236 223.652 571.673 221.76 563.708 217.976C555.742 214.193 548.773 209.214 542.798 203.041C536.824 196.868 532.145 189.599 528.66 181.335C525.175 173.071 523.482 164.409 523.482 155.248C523.482 146.088 525.175 137.625 528.66 129.261C532.145 120.897 536.824 113.629 542.798 107.455C548.773 101.282 555.742 96.204 563.708 92.52C571.673 88.7364 580.236 86.8446 589.397 86.8446C600.349 86.8446 610.605 89.7321 619.964 95.6066C624.743 98.5937 629.025 101.879 632.908 105.563V105.265L642.194 95.4469C651.405 85.7088 650.868 70.0098 639.181 63.446C624.046 54.9827 607.518 50.8008 589.397 50.8008C575.158 50.8008 561.716 53.5887 549.071 59.065C536.426 64.5412 525.374 72.0089 515.915 81.4679C506.456 90.9269 498.889 101.979 493.412 114.724C487.837 127.469 485.148 140.91 485.148 155.248C485.148 169.586 487.936 183.028 493.412 195.573C498.889 208.119 506.456 219.271 515.915 228.63C525.374 238.089 536.426 245.557 549.071 251.033C561.716 256.509 575.158 259.297 589.397 259.297C602.44 259.297 614.786 257.107 626.635 252.726C638.484 248.345 648.839 242.271 657.9 234.505C666.96 226.738 674.328 217.479 680.103 206.626C685.878 195.872 689.264 184.123 690.359 171.478C691.952 157.737 681.199 145.69 667.359 145.69Z" fill="#2BA2D3"/>
<path d="M590.99 180.339H632.41C640.077 169.287 644.159 156.244 646.25 145.789H590.99V180.339Z" fill="#319756"/>
</g>
<g clip-path="url(#clip3_5_4735)">
<path d="M993.744 289.467C991.952 295.242 989.363 300.32 985.878 304.8C982.393 309.281 978.012 312.965 972.636 315.853C967.259 318.74 960.986 320.134 953.519 320.134C946.051 320.134 939.778 318.74 934.401 315.853C929.025 312.965 924.644 309.281 921.159 304.8C917.674 300.32 915.085 295.142 913.293 289.467C910.541 280.564 903.237 272.938 893.918 272.938H873.266C873.266 284.289 875.457 294.744 879.539 304.203C883.721 313.861 889.396 322.125 896.565 328.996C903.734 335.866 912.297 341.243 922.055 345.126C931.813 349.009 942.367 351 953.419 351C964.471 351 974.926 349.009 984.783 345.126C994.64 341.243 1003.1 335.866 1010.27 328.996C1017.44 322.125 1023.12 313.861 1027.3 304.203C1031.38 294.744 1033.47 284.389 1033.57 272.938H996.034C996.034 278.415 995.138 283.891 993.446 289.467H993.744Z" fill="#319756"/>
<path d="M1051.49 115.52C996.333 114.823 992.848 166.4 995.238 177.054H995.039C995.736 180.738 996.333 184.521 996.333 188.205C996.333 193.98 995.437 199.656 993.744 205.431C991.952 211.206 989.363 216.284 985.878 220.764C982.393 225.245 978.012 228.929 972.636 231.816C967.259 234.704 960.986 236.098 953.519 236.098C946.051 236.098 939.778 234.704 934.401 231.816C929.025 228.929 924.644 225.245 921.159 220.764C917.674 216.284 915.085 211.106 913.293 205.431C911.501 199.656 910.704 193.98 910.704 188.205C910.704 182.43 911.6 176.755 913.293 171.08C914.986 165.404 917.674 160.326 921.159 155.846C924.644 151.365 929.025 147.681 934.401 144.893C939.778 142.105 946.051 140.711 953.519 140.711C960.986 140.711 967.259 142.105 972.636 144.893C976.818 147.084 980.303 149.971 983.389 153.257C983.489 152.759 983.588 152.162 983.688 151.664C985.679 143.599 988.965 136.43 993.545 130.257C995.337 127.767 997.528 125.577 999.818 123.585C995.238 120.698 990.259 118.109 984.883 116.118C975.025 112.434 964.571 110.542 953.519 110.542C942.466 110.542 932.012 112.434 922.154 116.118C912.297 119.802 903.834 125.079 896.665 131.85C889.496 138.62 883.821 146.785 879.639 156.344C875.457 165.902 873.366 176.456 873.366 188.205C873.366 199.955 875.457 210.608 879.639 220.167C883.821 229.825 889.496 238.089 896.665 244.96C903.834 251.83 912.397 257.206 922.154 261.09C931.912 264.973 942.466 266.964 953.519 266.964C964.571 266.964 975.025 264.973 984.883 261.09C994.74 257.206 1003.2 251.83 1010.37 244.96C1017.54 238.089 1023.22 229.825 1027.4 220.167C1031.58 210.509 1033.67 199.855 1033.67 188.205C1033.67 186.214 1033.57 184.223 1033.37 182.331H1033.57V180.34C1033.57 176.656 1033.87 172.872 1034.47 168.989C1035.07 165.106 1036.26 161.521 1038.05 158.235C1039.74 154.95 1042.33 152.261 1045.62 150.27C1048.71 148.378 1052.69 147.382 1057.57 147.283H1075.09V139.317C1075.09 126.175 1064.44 115.52 1051.29 115.52H1051.49Z" fill="#2BA2D3"/>
</g>
<defs>
<clipPath id="clip0_5_4735">
<rect width="160.604" height="156.323" fill="white" transform="translate(704 100.784)"/>
</clipPath>
<clipPath id="clip1_5_4735">
<rect width="160.604" height="156.323" fill="white" transform="translate(1062.45 100.784)"/>
</clipPath>
<clipPath id="clip2_5_4735">
<rect width="205.509" height="208.397" fill="white" transform="translate(484.949 51)"/>
</clipPath>
<clipPath id="clip3_5_4735">
<rect width="202.025" height="240.259" fill="white" transform="translate(873.266 110.741)"/>
</clipPath>
</defs>
</svg>
