<svg width="40" height="40" viewBox="0 0 40 40" fill="none" xmlns="http://www.w3.org/2000/svg">
    <path
        d="M33.8489 29.513C31.5106 32.048 27.9723 33.333 23.3339 33.333L21.6673 33.333L21.6673 28.6347L23.0073 28.3663C25.2906 27.9097 26.8789 27.0113 27.7289 25.693C28.1724 24.9828 28.424 24.1696 28.4589 23.333L23.3339 23.333C22.8919 23.333 22.468 23.1574 22.1554 22.8449C21.8429 22.5323 21.6673 22.1084 21.6673 21.6663L21.6673 9.99967C21.6673 8.16134 23.1623 6.66634 25.0006 6.66634L35.0006 6.66634C35.4426 6.66634 35.8665 6.84194 36.1791 7.1545C36.4917 7.46706 36.6673 7.89098 36.6673 8.33301L36.6673 16.6663L36.6623 21.5313C36.6773 21.7163 36.9939 26.0997 33.8489 29.513ZM6.66725 6.66634L16.6673 6.66634C17.1093 6.66634 17.5332 6.84193 17.8458 7.15449C18.1583 7.46705 18.3339 7.89098 18.3339 8.33301L18.3339 16.6663L18.3289 21.5313C18.3439 21.7163 18.6606 26.0997 15.5156 29.513C13.1773 32.048 9.63892 33.333 5.00059 33.333L3.33392 33.333L3.33392 28.6347L4.67392 28.3663C6.95725 27.9097 8.54558 27.0113 9.39558 25.693C9.8391 24.9828 10.0906 24.1696 10.1256 23.333L5.00059 23.333C4.55856 23.333 4.13463 23.1574 3.82207 22.8448C3.50951 22.5323 3.33392 22.1084 3.33392 21.6663L3.33392 9.99967C3.33392 8.16134 4.82892 6.66634 6.66725 6.66634Z"
        fill="#002333" />
</svg>