<svg width="1063" height="451" viewBox="0 0 1063 451" fill="none" xmlns="http://www.w3.org/2000/svg">
    <g clip-path="url(#clip0_4601_11824)">
        <path opacity="0.2"
            d="M1101.99 561.374V560.491H1076.9L1092.69 511.894L1051.34 481.865L1092.69 451.835L1076.9 403.239H1101.99V402.355H1076.62L1060.93 354.101L1102 324.271V323.188L1076.45 304.631H1044.86L1035.14 274.734L1035.09 274.601L1009.54 256.044L1019.26 226.147L1019.3 226.014L1009.55 195.985L1034.99 177.503L1035.1 177.418L1044.86 147.388H1076.45L1102 128.831V127.748L1060.93 97.9181L1072.28 62.9975L1102 41.4107V40.328L1060.93 10.4978L1076.62 -37.7567H1101.99V-38.6399H1076.9L1088.21 -73.4276L1088.25 -73.5606L1076.9 -108.481H1101.99V-109.364H1076.62L1060.93 -157.619L1102 -187.449V-187.991H1101.25L1060.65 -158.502L1051.06 -187.991H1050.14L1059.91 -157.961L1034.47 -139.48L1034.35 -139.394L1024.59 -109.364H992.998L967.443 -90.8072L942.002 -109.288L941.888 -109.374H910.301L900.535 -139.404L874.98 -157.961L884.689 -187.867L884.737 -188H883.815L874.23 -158.512L833.627 -188H832.136L791.533 -158.512L781.948 -188H781.026L790.792 -157.97L749.724 -128.14L708.656 -157.97L718.422 -188H717.5L707.915 -158.512L667.303 -188H665.811L625.208 -158.512L615.623 -188H614.702L624.467 -157.97L599.027 -139.489L598.913 -139.404L589.147 -109.374H557.56L532.005 -90.8167L506.564 -109.298L506.45 -109.383H474.863L465.097 -139.413L439.542 -157.97L449.251 -187.867L449.298 -188H448.377L438.792 -158.512L398.189 -188H396.697L356.095 -158.512L346.509 -188H345.588L355.354 -157.97L314.286 -128.14L273.217 -157.97L282.983 -188H282.062L272.476 -158.512L231.864 -188H230.373L189.77 -158.512L180.185 -188H179.263L189.029 -157.97L163.588 -139.489L163.474 -139.404L153.708 -109.374H122.121L96.5664 -90.8167L71.1256 -109.298L71.0116 -109.383H39.4244L29.6584 -139.413L4.10365 -157.97L13.8126 -187.867L13.8601 -188H12.9386L3.35315 -158.512L-37.2495 -188H-38V-187.459L3.06816 -157.628L-12.6162 -109.374H-38V-108.491H-12.9107L-24.2631 -73.5701L-12.9107 -38.6494H-38V-37.7662H-12.6162L3.06816 10.4883L-38 40.309V41.3917L-8.28425 62.9785L3.06816 97.8991L-38 127.729V128.812L-12.5592 147.293L-12.4452 147.379H19.142L28.9079 177.408L54.4627 195.966L44.7443 225.862L44.6968 225.995L54.4627 256.025L29.0219 274.506L28.9079 274.592L19.142 304.621H-12.4452L-38 323.179V324.261L3.06816 354.091L-12.6162 402.346H-38V403.229H-12.9107L-28.7091 451.826L12.6441 481.855L-28.7091 511.885L-12.9107 560.481H-38V561.365H-12.6162L3.06816 609.619L-38 639.459V640H-37.2495L3.35315 610.512L12.9386 640H13.8601L4.09415 609.97L29.5349 591.489L29.6489 591.404L39.4148 561.374H71.0021L96.5569 542.817L121.998 561.298L122.112 561.383H153.699L163.465 591.413L189.02 609.97L179.301 639.867L179.254 640H180.175L189.761 610.512L230.363 640H231.855L272.457 610.512L282.043 640H282.964L273.198 609.97L314.267 580.14L355.335 609.97L345.569 640H346.49L356.076 610.512L396.678 640H398.17L438.773 610.512L448.358 640H449.279L439.513 609.97L464.954 591.489L465.068 591.404L474.834 561.374H506.421L531.976 542.817L557.417 561.298L557.531 561.383H589.118L598.884 591.413L624.439 609.97L614.721 639.867L614.673 640H615.595L625.18 610.512L665.783 640H667.274L707.877 610.512L717.462 640H718.384L708.618 609.97L749.686 580.14L790.754 609.97L780.998 640H781.919L791.505 610.512L832.107 640H833.599L874.201 610.512L883.787 640H884.708L874.942 609.97L900.383 591.489L900.497 591.404L910.263 561.374H941.85L967.405 542.817L992.846 561.298L992.96 561.383H1024.55L1034.27 591.28L1034.31 591.413L1059.87 609.97L1050.15 639.867L1050.1 640H1051.02L1060.61 610.512L1101.21 640H1101.96V639.459L1060.89 609.629L1076.58 561.374H1101.95H1101.99ZM1091.65 451.503L1050.59 481.323L1020.87 459.737L1009.52 424.816L1039.23 403.239H1075.96L1091.65 451.493L1091.65 451.503ZM833.333 481.865L842.918 452.376L883.521 481.865L842.918 511.353L833.333 481.865ZM857.966 560.491H807.778L817.363 531.003L842.453 512.778L857.966 560.491ZM656.501 511.353L615.899 481.865L656.501 452.376L666.087 481.865L656.501 511.353ZM656.967 512.778L682.056 531.003L691.641 560.491H641.453L656.957 512.778H656.967ZM397.904 481.865L407.489 452.376L448.092 481.865L407.489 511.353L397.904 481.865ZM422.528 560.491H372.34L381.925 531.003L407.014 512.778L422.518 560.491H422.528ZM221.072 511.353L180.47 481.865L221.072 452.376L230.658 481.865L221.072 511.353ZM221.528 512.778L246.618 531.003L256.203 560.491H206.015L221.519 512.778H221.528ZM55.4982 424.484L71.1826 376.229H121.941L137.625 424.484L96.5569 454.314L55.4887 424.484H55.4982ZM95.8064 454.855L66.0906 476.442L54.7382 511.363L14.1356 481.874L43.8513 460.287L55.2037 425.367L95.8064 454.855ZM87.2565 37.8303L71.4581 -10.7661H122.568L138.366 -59.3625L178.969 -29.8742L137.616 0.155502L153.414 48.7519H102.304L86.506 97.3483L45.9033 67.8599L87.2565 37.8303ZM45.1623 67.3186L15.4466 45.7318L4.09415 10.8112L33.8099 -10.7661H70.5366L86.221 37.4884L45.1528 67.3186H45.1623ZM230.648 -29.8647L221.063 -0.376343L180.46 -29.8647L221.063 -59.353L230.648 -29.8647ZM206.024 -108.491H256.213L246.627 -79.0024L221.538 -60.7775L206.034 -108.491H206.024ZM407.48 -59.353L448.082 -29.8647L407.48 -0.376343L397.894 -29.8647L407.48 -59.353ZM407.024 -60.7775L381.935 -79.0024L372.349 -108.491H422.537L407.033 -60.7775H407.024ZM666.087 -29.8647L656.501 -0.376343L615.899 -29.8647L656.501 -59.353L666.087 -29.8647ZM641.463 -108.491H691.651L682.065 -79.0024L656.976 -60.7775L641.472 -108.491H641.463ZM842.918 -59.353L883.521 -29.8647L842.918 -0.376343L833.333 -29.8647L842.918 -59.353ZM842.462 -60.7775L817.373 -79.0024L807.787 -108.491H857.976L842.472 -60.7775H842.462ZM976.734 37.8303L1018.09 67.8599L977.484 97.3483L961.686 48.7519H910.577L926.375 0.155502L885.022 -29.8742L925.624 -59.3625L941.423 -10.7661H992.532L976.734 37.8303ZM993.454 -10.7566H1030.18L1059.9 10.8207L1048.54 45.7413L1018.83 67.3281L977.769 37.4979L993.454 -10.7566ZM692.107 304.631L666.552 323.188L641.111 304.707L640.997 304.621H609.41L599.644 274.592L574.089 256.034L583.808 226.138L583.855 226.005L574.089 195.975L599.53 177.494L599.644 177.408L609.401 147.379H640.988L666.543 128.822L691.983 147.303L692.097 147.388H723.685L733.441 177.418L758.996 195.975L749.277 225.872L749.23 226.005L758.996 256.034L733.555 274.516L733.441 274.601L723.675 304.631H692.088H692.107ZM723.409 305.505L707.905 353.218L667.303 323.729L692.392 305.505H723.409ZM371.998 304.716L371.884 304.631H340.296L330.53 274.601L304.976 256.044L314.694 226.147L314.742 226.014L304.976 195.985L330.416 177.503L330.53 177.418L340.296 147.388H371.884L397.438 128.831L422.879 147.312L422.993 147.398H454.58L464.346 177.427L489.901 195.985L480.183 225.881L480.135 226.014L489.901 256.044L464.46 274.525L464.346 274.611L454.58 304.64H422.993L397.438 323.198L371.998 304.716ZM396.688 323.729L356.085 353.218L340.581 305.505H371.599L396.688 323.729ZM159.589 376.229L189.305 354.642L204.818 402.355H168.091L138.376 423.933L122.872 376.22H159.598L159.589 376.229ZM122.577 375.346L111.225 340.425L122.577 305.505H173.335L189.02 353.759L159.304 375.346H122.577ZM173.972 304.631H122.862L138.366 256.918L179.719 286.947L221.072 256.918L236.871 305.514H287.98L272.476 353.227L231.123 323.198L189.77 353.227L173.972 304.631ZM165.051 84.5652L153.699 119.486H116.972L87.2565 97.8991L102.941 49.6446H153.699L165.051 84.5652ZM154.63 49.6446H204.818L193.466 84.5652L204.818 119.486H154.63L165.982 84.5652L154.63 49.6446ZM154.335 120.36H205.093L220.778 168.614L179.71 198.444L138.642 168.614L154.326 120.36H154.335ZM289.187 147.369H339.375L329.789 176.858L304.7 195.082L289.187 147.369ZM313.811 226.005L304.225 255.493L263.622 226.005L304.225 196.516L313.811 226.005ZM303.94 195.633L262.872 225.463L233.156 203.877L221.804 168.956L251.52 147.379H288.246L303.931 195.633H303.94ZM210.176 220.572L180.46 198.986L221.063 169.497L232.415 204.418L262.131 226.005L221.528 255.493L210.176 220.572ZM220.787 256.034L179.719 285.865L138.651 256.034L150.003 221.114L179.719 199.527L209.435 221.114L220.787 256.034ZM251.244 146.495L221.528 168.073L206.024 120.36H242.751L272.467 98.7728L287.971 146.486H251.244V146.495ZM178.969 198.986L149.253 220.572L137.901 255.493L97.2979 226.005L127.014 204.418L138.366 169.497L178.969 198.986ZM237.498 304.631L221.813 256.376L262.882 226.546L303.95 256.376L288.265 304.631H237.507H237.498ZM304.691 256.908L329.78 275.133L339.365 304.621H289.177L304.681 256.908H304.691ZM340.581 146.495L356.085 98.7823L396.688 128.271L371.599 146.495H340.581ZM624.743 97.3578L595.141 75.8565L595.027 75.771H558.3L573.804 28.0578L603.406 49.5591L603.52 49.6446H640.247L624.743 97.3578ZM625.199 98.7823L665.802 128.271L640.712 146.495H609.695L625.199 98.7823ZM594.742 76.6542L624.458 98.2315L608.774 146.486H558.016L546.663 111.565L558.016 76.6447H594.742V76.6542ZM490.186 195.092L465.097 176.867L455.511 147.379H505.699L490.186 195.092ZM506.621 147.369H557.379L573.063 195.624L531.995 225.454L490.927 195.624L506.611 147.369H506.621ZM490.642 196.507L531.245 225.995L490.642 255.484L481.057 225.995L490.642 196.507ZM505.69 304.631H455.502L465.087 275.143L490.177 256.918L505.69 304.631ZM490.927 256.367L531.995 226.537L573.063 256.367L557.379 304.621H506.621L490.937 256.367H490.927ZM573.804 256.908L598.894 275.133L608.479 304.621H558.291L573.795 256.908H573.804ZM573.348 255.493L532.746 226.005L573.348 196.516L582.934 226.005L573.348 255.493ZM558.3 147.369H608.489L598.903 176.858L573.814 195.082L558.3 147.369ZM545.742 111.575L557.094 146.495H506.906L518.258 111.575L506.906 76.6542H557.094L545.742 111.575ZM517.327 111.575L505.975 146.495H455.217L439.533 98.241L469.248 76.6637H505.975L517.327 111.584V111.575ZM468.963 75.771L439.247 97.3483L423.744 49.6351H460.47L490.186 28.0483L505.69 75.7615H468.963V75.771ZM454.295 146.495H423.278L398.189 128.271L438.792 98.7823L454.295 146.495ZM423.278 305.505H454.295L438.792 353.218L398.189 323.729L423.278 305.505ZM439.247 354.642L468.849 376.144L468.963 376.229H505.69L490.186 423.942L460.584 402.441L460.47 402.355H423.744L439.247 354.642ZM469.248 375.346L439.533 353.759L455.217 305.505H505.975L517.327 340.425L505.975 375.346H469.248ZM518.249 340.425L506.896 305.505H557.085L545.732 340.425L557.085 375.346H506.896L518.249 340.425ZM546.663 340.425L558.016 305.505H608.774L624.458 353.759L594.742 375.346H558.016L546.663 340.425ZM595.027 376.229L624.743 354.642L640.247 402.355H603.52L573.804 423.933L558.3 376.22H595.027V376.229ZM609.695 305.505H640.712L665.802 323.729L625.199 353.218L609.695 305.505ZM667.303 128.271L707.905 98.7823L723.409 146.495H692.392L667.303 128.271ZM898.018 84.5652L909.37 119.486H859.182L870.534 84.5652L859.182 49.6446H909.37L898.018 84.5652ZM910.292 49.6446H961.05L976.734 97.8991L947.018 119.486H910.292L898.939 84.5652L910.292 49.6446ZM909.655 120.36L925.339 168.614L884.271 198.444L843.203 168.614L858.887 120.36H909.646H909.655ZM854.555 221.114L884.271 199.527L913.987 221.114L925.339 256.034L884.271 285.865L843.203 256.034L854.555 221.114ZM842.462 255.493L801.859 226.005L831.575 204.418L842.928 169.497L883.53 198.986L853.815 220.572L842.462 255.493ZM914.738 220.572L885.022 198.986L925.624 169.497L936.977 204.418L966.693 226.005L926.09 255.493L914.738 220.572ZM842.462 168.073L812.86 146.571L812.746 146.486H776.02L791.524 98.7728L821.125 120.274L821.239 120.36H857.966L842.462 168.073ZM812.461 147.369L842.177 168.947L830.825 203.867L801.109 225.454L760.041 195.624L775.725 147.369H812.452H812.461ZM800.358 226.005L759.756 255.493L750.17 226.005L759.756 196.516L800.358 226.005ZM759.3 195.092L734.211 176.867L724.625 147.379H774.813L759.309 195.092H759.3ZM734.201 275.143L759.29 256.918L774.794 304.631H724.606L734.192 275.143H734.201ZM760.05 256.367L801.118 226.537L842.187 256.367L826.502 304.621H775.744L760.06 256.367H760.05ZM827.129 305.505L842.928 256.908L884.281 286.938L925.634 256.908L941.138 304.621H890.028L874.23 353.218L832.877 323.188L791.524 353.218L776.02 305.505H827.129ZM874.686 354.642L904.288 376.144L904.402 376.229H941.128L925.624 423.942L896.023 402.441L895.909 402.355H859.182L874.686 354.642ZM904.687 375.346L874.971 353.759L890.655 305.505H941.413L952.766 340.425L941.413 375.346H904.687ZM953.687 340.425L942.335 305.505H992.523L981.17 340.425L992.523 375.346H942.335L953.687 340.425ZM942.05 304.631L926.365 256.376L967.434 226.546L1008.5 256.376L992.817 304.631H942.059H942.05ZM937.718 203.877L926.365 168.956L956.081 147.379H992.808L1008.49 195.633L967.424 225.463L937.708 203.877H937.718ZM955.796 146.495L926.08 168.073L910.577 120.36H947.303L977.019 98.7728L992.523 146.486H955.796V146.495ZM925.339 0.506897L909.655 48.7614H858.897L843.213 0.506897L884.281 -29.3233L925.349 0.506897H925.339ZM857.966 48.7614H807.778L817.363 19.2731L842.453 1.04822L857.966 48.7614ZM858.251 49.6446L869.603 84.5652L858.251 119.486H821.524L791.809 97.8991L807.493 49.6446H858.251ZM791.068 97.3578L750.465 67.8695L775.554 49.6446H806.571L791.068 97.3578ZM790.773 98.2315L775.089 146.486H724.331L708.646 98.2315L749.714 68.4013L790.783 98.2315H790.773ZM708.361 97.3578L692.857 49.6446H723.875L748.964 67.8695L708.361 97.3578ZM707.62 97.8991L666.552 127.729L625.484 97.8991L641.168 49.6446H691.926L707.611 97.8991H707.62ZM641.463 48.7614L656.967 1.04822L682.056 19.2731L691.641 48.7614H641.453H641.463ZM656.216 0.506897L640.532 48.7614H603.805L574.089 27.1746L585.442 -7.74605L615.158 -29.3328L656.226 0.497391L656.216 0.506897ZM584.691 -8.28737L573.339 26.6333L532.736 -2.85507L562.452 -24.4324L573.804 -59.353L614.407 -29.8647L584.691 -8.27786V-8.28737ZM573.063 27.5165L557.379 75.771H506.621L490.937 27.5165L532.005 -2.31372L573.073 27.5165H573.063ZM490.642 26.6333L479.29 -8.28737L449.574 -29.8742L490.177 -59.3625L501.529 -24.4418L531.245 -2.86456L490.642 26.6238V26.6333ZM478.549 -7.73656L489.901 27.1841L460.185 48.7709H423.459L407.774 0.516388L448.842 -29.3138L478.558 -7.72705L478.549 -7.73656ZM422.528 48.7614H372.34L381.925 19.2731L407.014 1.04822L422.518 48.7614H422.528ZM422.813 49.6446L438.497 97.8991L397.429 127.729L356.361 97.8991L372.045 49.6446H422.803H422.813ZM355.629 97.3578L315.027 67.8695L340.116 49.6446H371.133L355.629 97.3578ZM355.344 98.2315L339.66 146.486H288.902L273.217 98.2315L314.286 68.4013L355.354 98.2315H355.344ZM272.923 97.3578L257.419 49.6446H288.436L313.526 67.8695L272.923 97.3578ZM272.182 97.8991L242.466 119.486H205.739L194.387 84.5652L205.739 49.6446H256.498L272.182 97.8991ZM206.024 48.7614L221.528 1.04822L246.618 19.2731L256.203 48.7614H206.015H206.024ZM220.787 0.506897L205.103 48.7614H154.345L138.661 0.506897L179.729 -29.3233L220.797 0.506897H220.787ZM86.9715 98.7823L116.573 120.284L116.687 120.369H153.414L137.91 168.082L108.308 146.581L108.194 146.495H71.4676L86.9715 98.7823ZM107.909 147.369L137.625 168.947L126.273 203.867L96.5569 225.454L55.4887 195.624L71.1731 147.369H107.9H107.909ZM137.625 256.367L121.941 304.621H71.1826L55.4982 256.367L96.5664 226.537L137.635 256.367H137.625ZM121.656 305.505L110.303 340.425L121.656 375.346H71.4676L82.82 340.425L71.4676 305.505H121.656ZM137.91 425.367L149.262 460.287L178.978 481.874L138.376 511.363L127.023 476.442L97.3074 454.855L137.91 425.367ZM150.003 459.737L138.651 424.816L168.367 403.239H205.093L220.778 451.493L179.71 481.314L149.994 459.727L150.003 459.737ZM206.024 403.239H256.213L246.627 432.727L221.538 450.952L206.034 403.239H206.024ZM205.739 402.365L190.055 354.11L231.123 324.28L272.191 354.11L256.507 402.365H205.749H205.739ZM272.923 354.642L313.526 384.131L288.436 402.355H257.419L272.923 354.642ZM273.208 353.769L288.892 305.514H339.65L355.335 353.769L314.267 383.599L273.198 353.769H273.208ZM355.629 354.642L371.133 402.355H340.116L315.027 384.131L355.629 354.642ZM356.37 354.101L397.438 324.271L438.507 354.101L422.822 402.355H372.064L356.38 354.101H356.37ZM422.528 403.239L407.024 450.952L381.935 432.727L372.349 403.239H422.537H422.528ZM407.774 451.503L423.459 403.248H460.185L489.901 424.826L478.549 459.746L448.833 481.333L407.765 451.512L407.774 451.503ZM479.299 460.287L490.652 425.367L531.254 454.855L501.539 476.442L490.186 511.363L449.583 481.874L479.299 460.287ZM490.927 424.484L506.611 376.229H557.37L573.054 424.484L531.986 454.314L490.918 424.484H490.927ZM573.348 425.367L584.701 460.287L614.417 481.874L573.814 511.363L562.461 476.442L532.746 454.855L573.348 425.367ZM585.442 459.737L574.089 424.816L603.805 403.239H640.532L656.216 451.493L615.148 481.314L585.432 459.727L585.442 459.737ZM641.463 403.239H691.651L682.065 432.727L656.976 450.952L641.472 403.239H641.463ZM641.178 402.365L625.493 354.11L666.562 324.28L707.63 354.11L691.945 402.365H641.187H641.178ZM708.361 354.642L748.964 384.131L723.875 402.355H692.857L708.361 354.642ZM708.646 353.769L724.331 305.514H775.089L790.773 353.769L749.705 383.599L708.637 353.769H708.646ZM791.068 354.642L806.571 402.355H775.554L750.465 384.131L791.068 354.642ZM791.809 354.101L832.877 324.271L873.945 354.101L858.26 402.355H807.502L791.818 354.101H791.809ZM857.966 403.239L842.462 450.952L817.373 432.727L807.787 403.239H857.976H857.966ZM843.203 451.503L858.887 403.248H895.614L925.33 424.826L913.978 459.746L884.262 481.333L843.194 451.512L843.203 451.503ZM914.738 460.287L926.09 425.367L966.693 454.855L936.977 476.442L925.624 511.363L885.022 481.874L914.738 460.287ZM926.365 424.484L942.05 376.229H992.808L1008.49 424.484L967.424 454.314L926.356 424.484H926.365ZM1008.79 425.367L1020.09 460.154L1020.14 460.287L1049.85 481.874L1009.25 511.363L997.9 476.442L968.184 454.855L1008.79 425.367ZM1075.69 402.365H1038.96L1009.24 423.942L993.739 376.229H1030.47L1060.18 354.642L1075.69 402.355V402.365ZM1076.15 305.505L1101.24 323.729L1060.64 353.218L1045.13 305.505H1076.15ZM1059.9 353.769L1030.18 375.355H993.454L982.102 340.435L993.454 305.514H1044.21L1059.9 353.769ZM1034.34 275.143L1043.93 304.631H993.739L1009.24 256.918L1034.33 275.143H1034.34ZM1018.36 226.005L1008.78 255.493L968.175 226.005L1008.78 196.516L1018.36 226.005ZM1034.34 176.867L1009.25 195.092L993.748 147.379H1043.94L1034.35 176.867H1034.34ZM1044.21 146.495H993.454L977.769 98.241L1018.84 68.4108L1059.91 98.241L1044.22 146.495H1044.21ZM1101.24 128.271L1076.15 146.495H1045.13L1060.64 98.7823L1101.24 128.271ZM1101.24 40.8504L1071.64 62.3517L1071.52 62.4371L1060.17 97.3578L1019.57 67.8695L1049.17 46.3681L1049.28 46.2827L1060.64 11.362L1101.24 40.8504ZM1060.18 9.93747L1030.47 -11.6398H993.739L1009.24 -59.353L1038.96 -37.7662H1075.69L1060.18 9.94696V9.93747ZM1035.08 -138.862L1060.17 -157.087L1075.68 -109.374H1025.49L1035.07 -138.862H1035.08ZM1025.21 -108.491H1075.97L1087.32 -73.5701L1075.97 -38.6494H1039.24L1009.53 -60.2362L1025.21 -108.491ZM993.273 -108.491H1024.29L1008.79 -60.7775L968.184 -90.2659L993.273 -108.491ZM967.434 -89.7245L1008.5 -59.8943L992.817 -11.6398H942.059L926.375 -59.8943L967.443 -89.7245H967.434ZM941.594 -108.491L966.683 -90.2659L926.08 -60.7775L910.577 -108.491H941.594ZM925.339 -60.2362L884.271 -30.406L843.203 -60.2362L858.887 -108.491H909.646L925.33 -60.2362H925.339ZM874.686 -157.087L899.775 -138.862L909.361 -109.374H859.173L874.676 -157.087H874.686ZM832.877 -187.459L873.945 -157.628L858.26 -109.374H807.502L791.818 -157.628L832.877 -187.459ZM791.068 -157.087L806.571 -109.374H775.554L750.465 -127.599L791.068 -157.087ZM749.714 -127.057L775.155 -108.576L775.269 -108.491H806.856L816.613 -78.4611L842.168 -59.9038L832.449 -30.0071L832.402 -29.8742L842.168 0.155502L816.727 18.6367L816.613 18.7222L806.847 48.7519H775.26L749.705 67.3091L724.264 48.8279L724.15 48.7424H692.563L682.806 18.7127L657.252 0.155502L666.97 -29.7412L667.018 -29.8742L657.252 -59.9038L682.692 -78.3851L682.806 -78.4706L692.563 -108.5H724.15L749.705 -127.057H749.714ZM708.361 -157.087L748.964 -127.599L723.875 -109.374H692.857L708.361 -157.087ZM666.552 -187.459L707.62 -157.628L691.936 -109.374H641.178L625.493 -157.628L666.552 -187.459ZM599.644 -138.862L624.733 -157.087L640.247 -109.374H590.059L599.644 -138.862ZM589.774 -108.491H640.532L656.216 -60.2362L615.148 -30.4155L574.08 -60.2457L589.764 -108.5L589.774 -108.491ZM557.835 -108.491H588.852L573.348 -60.7775L532.746 -90.2659L557.835 -108.491ZM531.995 -89.7245L573.063 -59.8943L561.711 -24.9737L531.995 -3.39639L502.279 -24.9737L490.927 -59.8943L531.995 -89.7245ZM506.155 -108.491L531.245 -90.2659L490.642 -60.7775L475.138 -108.491H506.155ZM489.901 -60.2362L448.833 -30.406L407.765 -60.2362L423.449 -108.491H474.207L489.892 -60.2362H489.901ZM439.247 -157.087L464.337 -138.862L473.922 -109.374H423.734L439.238 -157.087H439.247ZM397.438 -187.459L438.507 -157.628L422.822 -109.374H372.064L356.38 -157.628L397.438 -187.459ZM355.629 -157.087L371.133 -109.374H340.116L315.027 -127.599L355.629 -157.087ZM314.276 -127.057L339.717 -108.576L339.831 -108.491H371.418L381.184 -78.4611L406.739 -59.9038L397.02 -30.0071L396.973 -29.8742L406.739 0.155502L381.298 18.6367L381.184 18.7222L371.418 48.7519H339.831L314.276 67.3091L288.835 48.8279L288.721 48.7424H257.134L247.368 18.7127L221.813 0.155502L231.532 -29.7412L231.579 -29.8742L221.813 -59.9038L247.254 -78.3851L247.368 -78.4706L257.134 -108.5H288.721L314.276 -127.057ZM272.923 -157.087L313.526 -127.599L288.436 -109.374H257.419L272.923 -157.087ZM231.114 -187.459L272.182 -157.628L256.498 -109.374H205.739L190.055 -157.628L231.114 -187.459ZM164.206 -138.862L189.295 -157.087L204.808 -109.374H154.62L164.206 -138.862ZM154.335 -108.491H205.093L220.778 -60.2362L179.71 -30.406L138.642 -60.2362L154.326 -108.491H154.335ZM122.397 -108.491H153.414L137.91 -60.7775L97.3074 -90.2659L122.397 -108.491ZM96.5569 -89.7245L137.625 -59.8943L121.941 -11.6398H71.1826L55.4982 -59.8943L96.5664 -89.7245H96.5569ZM70.7171 -108.491L95.8064 -90.2659L55.2037 -60.7775L39.6999 -108.491H70.7171ZM3.80915 -157.087L28.8984 -138.862L38.4839 -109.374H-11.6947L3.80915 -157.087ZM-23.3321 -73.5701L-11.9797 -108.491H38.7784L54.4627 -60.2362L24.747 -38.6494H-11.9797L-23.3321 -73.5701ZM-11.6947 -37.7757H25.032L54.7477 -59.3625L70.2516 -11.6493H33.5249L3.80915 9.92798L-11.6947 -37.7852V-37.7757ZM-7.53375 62.4371L-37.2495 40.8504L3.35315 11.362L14.7056 46.2827L44.4213 67.8695L3.81865 97.3578L-7.53375 62.4371ZM-12.1602 146.495L-37.2495 128.271L3.35315 98.7823L18.857 146.495H-12.1602ZM4.09415 98.2315L45.1623 68.4013L86.2305 98.2315L70.5461 146.486H19.788L4.10365 98.2315H4.09415ZM29.6489 176.867L20.0635 147.379H70.2516L54.7477 195.092L29.6584 176.867H29.6489ZM45.6278 226.005L55.2132 196.516L95.8159 226.005L55.2132 255.493L45.6278 226.005ZM29.6489 275.143L54.7382 256.918L70.2421 304.631H20.054L29.6394 275.143H29.6489ZM19.7785 305.505H70.5366L81.889 340.425L70.5366 375.346H33.8099L4.09415 353.759L19.7785 305.505ZM-37.2495 323.729L-12.1602 305.505H18.857L3.35315 353.218L-37.2495 323.729ZM3.80915 354.642L33.4109 376.144L33.5249 376.229H70.2516L54.7477 423.942L25.146 402.441L25.032 402.355H-11.6947L3.80915 354.642ZM-27.6641 451.503L-11.9797 403.248H24.747L54.4627 424.826L43.1103 459.746L13.3946 481.333L-27.6736 451.512L-27.6641 451.503ZM28.9079 590.862L3.81865 609.087L-11.6947 561.374H38.4934L28.9079 590.862ZM38.7784 560.491H-11.9797L-27.6641 512.236L13.4041 482.406L54.4722 512.236L38.7879 560.491H38.7784ZM70.7171 560.491H39.6999L55.2037 512.778L95.8064 542.266L70.7171 560.491ZM96.5569 541.725L55.4887 511.894L66.8411 476.974L96.5569 455.387L126.273 476.974L137.625 511.894L96.5569 541.725ZM122.397 560.491L97.3074 542.266L137.91 512.778L153.414 560.491H122.397ZM138.651 512.236L179.719 482.406L220.787 512.236L205.103 560.491H154.345L138.661 512.236H138.651ZM189.305 609.087L164.215 590.862L154.63 561.374H204.818L189.305 609.087ZM231.114 639.459L190.046 609.629L205.73 561.374H256.488L272.172 609.629L231.104 639.459H231.114ZM272.923 609.087L257.419 561.374H288.436L313.526 579.599L272.923 609.087ZM314.276 579.057L288.835 560.576L288.721 560.491H257.134L247.368 530.461L221.813 511.904L231.532 482.007L231.579 481.874L221.813 451.845L247.254 433.363L247.368 433.278L257.134 403.248H288.721L314.276 384.691L339.717 403.172L339.831 403.258H371.418L381.184 433.287L406.739 451.845L397.02 481.741L396.973 481.874L406.739 511.904L381.298 530.385L381.184 530.471L371.418 560.5H339.831L314.276 579.057ZM355.629 609.087L315.027 579.599L340.116 561.374H371.133L355.629 609.087ZM397.438 639.459L356.37 609.629L372.055 561.374H422.813L438.497 609.629L397.429 639.459H397.438ZM464.346 590.862L439.257 609.087L423.744 561.374H473.932L464.346 590.862ZM474.217 560.491H423.459L407.774 512.236L448.842 482.406L489.911 512.236L474.226 560.491H474.217ZM506.155 560.491H475.138L490.642 512.778L531.245 542.266L506.155 560.491ZM531.995 541.725L490.927 511.894L502.279 476.974L531.995 455.387L561.711 476.974L573.063 511.894L531.995 541.725ZM557.835 560.491L532.746 542.266L573.348 512.778L588.852 560.491H557.835ZM574.089 512.236L615.158 482.406L656.226 512.236L640.541 560.491H589.783L574.099 512.236H574.089ZM624.743 609.087L599.654 590.862L590.068 561.374H640.256L624.752 609.087H624.743ZM666.552 639.459L625.484 609.629L641.168 561.374H691.926L707.611 609.629L666.543 639.459H666.552ZM708.361 609.087L692.857 561.374H723.875L748.964 579.599L708.361 609.087ZM749.714 579.057L724.274 560.576L724.16 560.491H692.572L682.816 530.461L657.261 511.904L666.98 482.007L667.027 481.874L657.261 451.845L682.702 433.363L682.816 433.278L692.572 403.248H724.16L749.714 384.691L775.155 403.172L775.269 403.258H806.856L816.613 433.287L842.168 451.845L832.449 481.741L832.402 481.874L842.168 511.904L816.727 530.385L816.613 530.471L806.847 560.5H775.26L749.705 579.057H749.714ZM791.068 609.087L750.465 579.599L775.554 561.374H806.571L791.068 609.087ZM832.877 639.459L791.809 609.629L807.493 561.374H858.251L873.935 609.629L832.867 639.459H832.877ZM899.785 590.862L874.695 609.087L859.182 561.374H909.37L899.785 590.862ZM909.655 560.491H858.897L843.213 512.236L884.281 482.406L925.349 512.236L909.665 560.491H909.655ZM941.594 560.491H910.577L926.08 512.778L966.683 542.266L941.594 560.491ZM967.434 541.725L926.365 511.894L937.718 476.974L967.434 455.387L997.149 476.974L1008.5 511.894L967.434 541.725ZM993.273 560.491L968.184 542.266L1008.79 512.778L1024.3 560.491H993.283H993.273ZM1060.18 609.087L1035.09 590.862L1025.51 561.374H1075.69L1060.19 609.087H1060.18ZM1025.21 560.491L1009.53 512.236L1050.6 482.406L1091.66 512.236L1075.98 560.491H1025.22H1025.21Z"
            fill="#018BCB" />
    </g>
    <defs>
        <clipPath id="clip0_4601_11824">
            <rect width="1063" height="451" fill="white" />
        </clipPath>
    </defs>
</svg>