<svg width="20" height="21" viewBox="0 0 20 21" fill="inherit" xmlns="http://www.w3.org/2000/svg">
    <path
        d="M17.9942 6.50234C17.8993 6.15018 17.7138 5.82901 17.4562 5.57082C17.1986 5.31262 16.8778 5.12639 16.5259 5.03068C15.2209 4.67234 10 4.66651 10 4.66651C10 4.66651 4.78003 4.66068 3.4742 5.00318C3.12247 5.1033 2.80238 5.29216 2.54467 5.55162C2.28696 5.81109 2.10027 6.13244 2.00253 6.48484C1.65836 7.78984 1.65503 10.4965 1.65503 10.4965C1.65503 10.4965 1.6517 13.2165 1.99336 14.5082C2.18503 15.2223 2.74753 15.7865 3.46253 15.979C4.78086 16.3373 9.98753 16.3432 9.98753 16.3432C9.98753 16.3432 15.2084 16.349 16.5134 16.0073C16.8654 15.9118 17.1865 15.726 17.4447 15.4683C17.703 15.2107 17.8895 14.89 17.9859 14.5382C18.3309 13.234 18.3334 10.5282 18.3334 10.5282C18.3334 10.5282 18.35 7.80734 17.9942 6.50234ZM8.33003 13.004L8.3342 8.00401L12.6734 10.5082L8.33003 13.004Z"
        fill="inherit" />
</svg>