<svg width="401" height="402" viewBox="0 0 401 402" fill="none" xmlns="http://www.w3.org/2000/svg">
    <path
        d="M107.508 24.2004C156.317 -0.593593 213.089 -6.52202 265.283 10.5549C314.881 27.1924 355.882 62.7782 379.331 109.542C394.276 139.01 401.683 171.722 400.892 204.752C401.275 233.594 393.845 262.424 381.747 288.476C379.433 293.458 376.87 299.6 373.529 303.934C372.24 306.159 370.845 308.238 369.341 310.323C365.051 312.099 359.607 313.972 354.932 314.043C352.345 314.014 349.951 313.801 347.402 313.353C356.812 301.402 367.028 286.921 369.349 271.535C341.839 284.35 307.998 285.69 278.176 282.597L278.138 236.915L278.068 224.845L287.245 226.298C293.452 195.295 295.927 149.52 288.967 118.452C243.451 102.784 195.661 94.7407 147.525 94.6477C133.93 125.296 123.863 164.207 123.967 197.842C124.072 212.125 124.104 226.409 124.064 240.693C113.245 238.363 101.841 234.275 91.5001 230.344C65.356 220.406 25.0774 203.713 13.212 176.917C4.08302 156.298 11.6673 138.807 19.3038 119.351C21.8784 111.481 26.4077 103.899 30.6632 96.8215C48.9019 65.8401 75.5458 40.6602 107.508 24.2004ZM304.595 125.34C307.582 149.904 307.587 174.738 304.609 199.302C303.554 208.688 301.386 218.151 300.678 227.525C321.966 228.509 347.492 227.484 366.779 217.722C372.578 214.456 379.164 209.861 381.061 203.09C382.948 196.35 377.542 185.378 374.122 179.647C361.584 158.633 339.337 142.744 317.952 131.574C313.728 129.368 309.156 126.719 304.595 125.34ZM126.501 94.9944C124.475 95.0513 122.387 95.0029 120.373 95.2073C99.7107 96.9552 78.5089 99.2606 59.2794 107.54C55.8139 109.034 51.7706 110.654 49.2589 113.579C44.0135 119.691 40.6168 130.523 38.3019 138.199C45.6964 147.705 54.278 154.324 64.2931 160.797C76.3501 168.602 89.9433 174.352 103.108 179.982C106.375 159.933 110.392 140.764 116.755 121.431C119.7 112.482 123.463 103.882 126.501 94.9944ZM263.411 25.9709C281.507 41.2935 291.242 64.6545 297.255 87.0901C298.87 93.1178 299.749 99.4004 301.525 105.358C329.701 119.041 357.236 135.407 377.156 160.137C377.561 160.638 377.372 160.439 377.868 160.852C370.819 116.837 344.678 74.8358 308.556 48.7502C296.424 39.9897 277.676 29.5204 263.411 25.9709ZM243.196 25.2629C236.345 20.9204 228.312 17.7818 220.076 18.5657C201.495 20.4091 185.728 34.5148 174.341 48.344C167.817 56.2677 161.893 65.2879 156.881 74.2434C183.248 74.9545 211.401 78.6454 237.038 85.0198C253.685 88.3816 269.977 93.3075 285.699 99.7288C279.683 72.2933 267.962 40.9591 243.196 25.2629ZM181.879 19.0295C144.265 24.9869 109.777 40.9173 82.4952 67.7131C78.1436 71.9869 72.546 76.7809 69.1984 81.8411C68.922 82.2582 68.6119 82.6936 68.5558 83.1995C91.0082 75.8452 113.275 75.0098 136.641 73.6848C144.351 59.5484 152.712 46.1238 163.938 34.4739C167.67 30.6004 171.492 27.0881 175.816 23.8762C177.009 22.9893 181.535 20.2808 181.879 19.0295Z"
        fill="#2BA2D3" />
    <path
        d="M1.06519 200.825C5.04846 222.874 14.6893 234.925 33.0261 247.667C59.873 266.324 92.9409 276.871 123.964 286.222C124.043 292.614 124.09 299.005 124.104 305.397L136.6 308.864C147.373 310.668 158.265 313.317 168.939 315.677C182.589 318.212 196.306 320.377 210.073 322.167C218.092 323.15 226.329 323.495 234.286 324.747C243.835 326.523 256.383 326.334 266.16 326.567C266.094 324.708 266.163 322.843 266.199 320.984L266.435 326.501C292.874 326.798 314.943 325.196 340.311 317.627C343.027 316.541 345.178 315.225 347.402 313.352C349.951 313.8 352.344 314.014 354.931 314.043C359.607 313.972 365.051 312.099 369.341 310.323C363.876 318.325 358.082 326.026 351.548 333.197C346.231 339.474 339.849 345.275 333.625 350.642C310.528 370.555 284.144 385.981 254.621 394.049C203.527 408.008 148.991 401.294 102.807 375.359C63.4914 352.979 32.6738 318.23 15.1511 276.521C12.8882 270.983 10.4364 265.288 8.86695 259.513C3.92304 240.403 0.240229 220.671 1.06519 200.825ZM318.438 340.833C298.65 344.553 277.955 343.602 257.979 342.317C255.207 344.582 252.543 350.088 250.083 353.125C239.767 365.858 227.824 375.779 213.031 382.876C251.115 381.448 289.5 365.512 318.438 340.833ZM126.386 318.391C133.37 340.972 142.366 363.955 164.531 375.59C175.386 381.288 186.668 381.59 198.244 377.873C213.803 372.877 227.068 362.002 237.497 349.689C239.32 347.536 242.343 344.127 243.296 341.451C243.347 341.306 243.349 341.147 243.376 340.996C230.63 340.273 217.715 338.137 205.117 336.071C178.794 331.753 151.818 326.5 126.386 318.391ZM40.8679 283.973C41.5549 287.962 45.5707 293.257 47.7449 296.703C61.6653 318.769 76.9892 336.342 98.4255 351.536C111.576 360.856 125.508 367.676 140.347 373.817C127.376 360.685 118.453 346.29 113.436 328.386C112.056 323.46 111.609 318.137 110.031 313.315C105.127 312.468 99.5927 309.901 94.9177 308.141C76.3643 301.344 58.3049 293.269 40.8679 283.973Z"
        fill="#2BA2D3" />
    <path
        d="M201.489 127C223.99 134.107 249.39 148.604 260.664 170.09C263.437 175.374 265.116 180.834 265.815 186.756C266.593 193.341 266.345 200.165 266.325 206.79L266.284 233.738C266.287 262.811 266.567 291.914 266.201 320.984C266.165 322.843 266.096 324.708 266.163 326.567C256.386 326.334 243.837 326.522 234.289 324.746L234.309 252.807C234.313 242.134 235.451 223.866 233.246 214.188C231.881 208.202 228.524 202.958 224.272 198.594C218.401 192.568 210.748 188.496 202.207 188.42C193.683 188.346 185.688 192.479 179.768 198.435C175.248 202.984 171.746 208.791 170.251 215.051C167.757 225.501 168.918 242.411 168.918 253.479L168.941 315.676C158.267 313.316 147.375 310.667 136.603 308.863L136.662 230.365L136.636 206.698C136.609 198.331 136.081 189.745 138.181 181.566C140.794 171.385 146.691 162.639 154.024 155.243C166.441 142.718 184.346 131.892 201.489 127Z"
        fill="#104E77" />
    <path
        d="M19.304 119.352C19.3601 119.505 19.4279 119.656 19.4723 119.813C19.6817 120.557 19.6775 121.111 19.7018 121.869C20.1281 135.061 29.8434 144.877 39.0026 153.302C57.0697 169.924 81.811 180.214 104.743 188.187C110.004 190.016 119.598 191.774 123.926 194.613C123.918 195.693 123.889 196.765 123.968 197.843C124.073 212.126 124.104 226.41 124.064 240.694C113.246 238.364 101.841 234.276 91.5004 230.345C65.3562 220.407 25.0779 203.714 13.2126 176.918C4.08361 156.299 11.6674 138.808 19.304 119.352Z"
        fill="#319756" />
    <path
        d="M400.893 204.752C401.276 233.594 393.846 262.424 381.748 288.476C379.434 293.458 376.871 299.599 373.53 303.933C372.241 306.159 370.847 308.237 369.342 310.322C365.053 312.098 359.609 313.972 354.933 314.043C352.346 314.014 349.952 313.8 347.403 313.352C356.813 301.402 367.029 286.921 369.35 271.535C341.84 284.35 307.999 285.69 278.177 282.597L278.139 236.915C283.657 237.496 289.138 238.487 294.672 238.919C320.765 240.953 353.109 239.999 376.973 228.156C384.64 224.352 397.308 215.397 400.093 206.884C400.33 206.161 400.616 205.461 400.893 204.752Z"
        fill="#319756" />
    <path
        d="M354.932 314.043L355.153 313.228C358.845 310.993 363.073 309.503 366.938 307.553C369.189 306.418 371.148 304.759 373.53 303.934C372.241 306.159 370.846 308.238 369.342 310.322C365.052 312.099 359.608 313.972 354.932 314.043Z"
        fill="#C35245" />
</svg>