<svg xmlns="http://www.w3.org/2000/svg" width="px" height="px" viewBox="0 0 612 201"><defs><clipPath id="a"><path d="M352 50.39h80.3v78.165H352Zm0 0"/></clipPath><clipPath id="b"><path d="M531.227 50.39h80.3v78.165h-80.3Zm0 0"/></clipPath><clipPath id="c"><path d="M242.473 25.5H345.23v104.2H242.473Zm0 0"/></clipPath><clipPath id="d"><path d="M436.633 136H517v39.5h-80.367Zm0 0"/></clipPath><clipPath id="e"><path d="M436.633 55.371h101.012V134H436.633Zm0 0"/></clipPath></defs><path d="M53.754 12.102C78.16-.297 106.543-3.262 132.64 5.277a99.02 99.02 0 0 1 57.023 49.493 99.9 99.9 0 0 1 10.781 47.605c.192 14.422-3.523 28.836-9.57 41.863-1.16 2.492-2.441 5.563-4.11 7.73a39 39 0 0 1-2.093 3.192c-2.145.89-4.867 1.824-7.207 1.863a23 23 0 0 1-3.766-.347c4.707-5.977 9.817-13.215 10.977-20.91-13.758 6.41-30.676 7.078-45.586 5.53l-.02-22.839-.035-6.035 4.586.726c3.106-15.5 4.344-38.386.863-53.921a218.5 218.5 0 0 0-70.722-11.903C66.965 62.648 61.93 82.102 61.984 98.922q.077 10.71.047 21.426c-5.41-1.168-11.11-3.211-16.281-5.176-13.07-4.969-33.21-13.317-39.145-26.715-4.562-10.309-.773-19.055 3.047-28.781 1.286-3.934 3.551-7.727 5.68-11.266a95.15 95.15 0 0 1 38.422-36.308m98.543 50.57a153.3 153.3 0 0 1 .008 36.98c-.528 4.692-1.614 9.422-1.965 14.11 10.644.492 23.406-.02 33.05-4.899 2.9-1.636 6.192-3.933 7.141-7.316.942-3.371-1.761-8.856-3.469-11.723-6.269-10.508-17.394-18.453-28.085-24.035-2.114-1.105-4.399-2.43-6.68-3.117M63.25 47.496c-1.012.031-2.055.004-3.062.106-10.333.875-20.934 2.027-30.547 6.168-1.735.746-3.754 1.558-5.012 3.02-2.621 3.054-4.32 8.472-5.477 12.308 3.696 4.754 7.989 8.062 12.996 11.3 6.028 3.903 12.825 6.778 19.407 9.594 1.633-10.027 3.64-19.61 6.824-29.277 1.473-4.473 3.351-8.774 4.871-13.219m68.457-34.512c9.047 7.664 13.914 19.344 16.922 30.563.805 3.012 1.246 6.152 2.133 9.133 14.09 6.84 27.855 15.023 37.816 27.39.203.25.11.149.356.356-3.524-22.008-16.594-43.008-34.657-56.051-6.066-4.379-15.437-9.613-22.57-11.39m-10.11-.352c-3.425-2.172-7.44-3.742-11.558-3.352-9.293.922-17.176 7.977-22.867 14.89-3.262 3.962-6.227 8.474-8.73 12.95 13.183.356 27.257 2.2 40.078 5.387a135 135 0 0 1 24.328 7.355c-3.008-13.718-8.868-29.383-21.25-37.23M90.94 9.516c-18.808 2.976-36.054 10.941-49.695 24.34-2.176 2.136-4.973 4.535-6.648 7.066-.137.207-.293.426-.32.676 11.226-3.676 22.359-4.094 34.042-4.754 3.856-7.07 8.035-13.782 13.649-19.606 1.867-1.937 3.777-3.695 5.937-5.3.598-.446 2.86-1.797 3.035-2.422" style="stroke:none;fill-rule:nonzero;fill:#2ba2d3;fill-opacity:1"/><path d="M.531 100.414c1.992 11.023 6.813 17.047 15.98 23.418 13.427 9.328 29.958 14.602 45.47 19.277q.064 4.799.07 9.59l6.25 1.735c5.386.902 10.832 2.226 16.168 3.406a385 385 0 0 0 20.566 3.242c4.012.492 8.13.664 12.11 1.293 4.773.887 11.046.793 15.933.91-.031-.93.004-1.863.02-2.793l.12 2.758c13.22.148 24.255-.652 36.938-4.437a12.4 12.4 0 0 0 3.543-2.137c1.278.222 2.473.332 3.766.347 2.34-.039 5.062-.972 7.207-1.863-2.734 4.004-5.633 7.852-8.899 11.438-2.656 3.14-5.847 6.039-8.96 8.722-11.547 9.957-24.743 17.672-39.504 21.703a100.77 100.77 0 0 1-75.907-9.343 102.6 102.6 0 0 1-43.828-49.418c-1.129-2.77-2.355-5.617-3.14-8.504C1.96 120.203.12 110.336.53 100.414m158.688 70.004c-9.895 1.86-20.242 1.383-30.23.742-1.387 1.13-2.716 3.883-3.946 5.403-5.16 6.367-11.133 11.328-18.527 14.875 19.043-.715 38.234-8.68 52.703-21.02M63.19 159.195c3.493 11.29 7.993 22.782 19.075 28.602 5.425 2.848 11.07 3 16.855 1.14 7.781-2.5 14.414-7.937 19.629-14.093.91-1.074 2.422-2.781 2.898-4.117.024-.075.028-.153.04-.23-6.372-.36-12.829-1.427-19.13-2.462-13.16-2.16-26.648-4.785-39.367-8.84m-42.757-17.207c.343 1.992 2.351 4.64 3.437 6.364 6.961 11.03 14.625 19.82 25.34 27.418 6.578 4.66 13.543 8.07 20.96 11.14-6.484-6.566-10.944-13.765-13.452-22.719-.692-2.46-.914-5.12-1.703-7.535-2.453-.422-5.22-1.707-7.555-2.586a214 214 0 0 1-27.027-12.082" style="stroke:none;fill-rule:nonzero;fill:#2ba2d3;fill-opacity:1"/><path d="M100.746 63.5c11.25 3.555 23.95 10.8 29.586 21.547a23.5 23.5 0 0 1 2.574 8.332c.39 3.293.266 6.703.258 10.016l-.023 13.472c.004 14.54.144 29.09-.04 43.625-.019.93-.054 1.863-.019 2.793-4.89-.117-11.164-.023-15.937-.914l.011-35.969c0-5.336.57-14.468-.535-19.308-.68-2.992-2.36-5.614-4.484-7.797-2.938-3.012-6.762-5.05-11.035-5.086-4.262-.04-8.258 2.027-11.22 5.008-2.257 2.273-4.01 5.176-4.757 8.308-1.246 5.223-.664 13.68-.664 19.211l.008 31.102c-5.336-1.184-10.781-2.508-16.168-3.41l.031-39.246-.016-11.836c-.011-4.184-.277-8.477.774-12.567 1.308-5.09 4.254-9.46 7.922-13.16 6.207-6.262 15.16-11.676 23.734-14.121" style="stroke:none;fill-rule:nonzero;fill:#104e77;fill-opacity:1"/><path d="M9.652 59.676c.028.078.063.152.082.23.106.371.106.649.118 1.028.21 6.597 5.07 11.504 9.648 15.718 9.035 8.309 21.406 13.453 32.871 17.442 2.633.914 7.43 1.793 9.594 3.21-.004.544-.02 1.079.02 1.618q.075 10.71.046 21.426c-5.41-1.164-11.11-3.211-16.281-5.176-13.07-4.969-33.21-13.317-39.145-26.711-4.562-10.313-.773-19.059 3.047-28.785m190.793 42.699c.192 14.422-3.523 28.836-9.57 41.863-1.156 2.492-2.441 5.563-4.11 7.727a38 38 0 0 1-2.093 3.195c-2.145.89-4.867 1.824-7.207 1.863a23 23 0 0 1-3.762-.347c4.703-5.977 9.813-13.215 10.973-20.91-13.754 6.41-30.676 7.078-45.586 5.53l-.02-22.839c2.758.29 5.5.785 8.266 1.004 13.047 1.016 29.219.539 41.152-5.383 3.832-1.902 10.164-6.379 11.559-10.637.117-.359.262-.71.398-1.066" style="stroke:none;fill-rule:nonzero;fill:#319756;fill-opacity:1"/><path d="m177.465 157.023.113-.41c1.844-1.117 3.957-1.863 5.89-2.836 1.126-.566 2.106-1.398 3.298-1.808a39 39 0 0 1-2.094 3.191c-2.145.89-4.867 1.824-7.207 1.863" style="stroke:none;fill-rule:nonzero;fill:#c35245;fill-opacity:1"/><g clip-path="url(#a)"><path d="M352 89.176c0-5.828 1.047-11.153 3.137-15.934 2.09-4.777 4.93-8.86 8.511-12.246 3.586-3.387 7.868-6.023 12.747-7.867 4.93-1.84 10.156-2.785 15.683-2.785 5.524 0 10.75.945 15.68 2.785 4.93 1.844 9.16 4.48 12.746 7.867 3.582 3.387 6.422 7.469 8.512 12.246 2.09 4.781 3.136 10.059 3.136 15.934q-.001 8.807-3.136 15.98c-2.09 4.828-4.93 8.961-8.512 12.395-3.586 3.433-7.867 6.125-12.746 8.066-4.93 1.942-10.156 2.938-15.68 2.938-5.527 0-10.754-.996-15.683-2.938-4.93-1.941-9.16-4.633-12.747-8.066q-5.374-5.152-8.511-12.395Q352 97.91 352 89.176m18.77 0c0 2.886.445 5.722 1.293 8.61a22.8 22.8 0 0 0 3.933 7.667c1.742 2.242 3.934 4.082 6.621 5.527 2.688 1.442 5.824 2.141 9.559 2.141s6.87-.7 9.558-2.14c2.688-1.446 4.88-3.286 6.621-5.528 1.743-2.238 3.036-4.828 3.934-7.668.848-2.887 1.293-5.722 1.293-8.61 0-2.89-.445-5.726-1.293-8.566-.898-2.836-2.191-5.375-3.934-7.617-1.742-2.238-3.933-4.082-6.62-5.472-2.688-1.395-5.825-2.094-9.56-2.094-3.734 0-6.87.699-9.558 2.094-2.687 1.39-4.879 3.183-6.62 5.472-1.743 2.242-3.036 4.781-3.935 7.617-.894 2.84-1.292 5.676-1.292 8.567" style="stroke:none;fill-rule:nonzero;fill:#104e77;fill-opacity:1"/></g><g clip-path="url(#b)"><path d="M531.227 89.176c0-5.828 1.043-11.153 3.132-15.934q3.136-7.166 8.516-12.246c3.578-3.387 7.863-6.023 12.746-7.867 4.926-1.84 10.152-2.785 15.68-2.785 5.523 0 10.754.945 15.68 2.785 4.93 1.844 9.16 4.48 12.746 7.867q5.375 5.08 8.511 12.246c2.09 4.781 3.137 10.059 3.137 15.934q-.001 8.807-3.137 15.98c-2.09 4.828-4.93 8.961-8.511 12.395-3.586 3.433-7.868 6.125-12.747 8.066-4.925 1.942-10.156 2.938-15.68 2.938-5.527 0-10.753-.996-15.679-2.938-4.93-1.941-9.168-4.633-12.746-8.066q-5.38-5.152-8.516-12.395-3.133-7.246-3.132-15.98m18.761 0c0 2.886.453 5.722 1.297 8.61a23 23 0 0 0 3.934 7.667c1.742 2.242 3.93 4.082 6.62 5.527 2.692 1.442 5.825 2.141 9.56 2.141 3.738 0 6.87-.7 9.562-2.14 2.684-1.446 4.875-3.286 6.617-5.528 1.742-2.238 3.035-4.828 3.934-7.668.847-2.887 1.293-5.722 1.293-8.61 0-2.89-.446-5.726-1.293-8.566-.899-2.836-2.192-5.375-3.934-7.617-1.742-2.238-3.933-4.082-6.617-5.472-2.691-1.395-5.824-2.094-9.563-2.094-3.734 0-6.867.699-9.558 2.094-2.692 1.39-4.88 3.183-6.621 5.472-1.742 2.242-3.04 4.781-3.934 7.617-.894 2.84-1.297 5.676-1.297 8.567" style="stroke:none;fill-rule:nonzero;fill:#2ba2d3;fill-opacity:1"/></g><g clip-path="url(#c)"><path d="M333.68 72.844h-2.739c-2.738 14.238-8.96 23.648-8.96 23.648h-.051c-.496.848-.946 1.645-1.543 2.39-1.992 2.638-4.282 4.927-6.918 6.872-2.64 1.941-5.578 3.433-8.766 4.48a31.9 31.9 0 0 1-10.004 1.59q-6.873 0-12.844-2.836c-3.984-1.89-7.468-4.383-10.457-7.468-2.988-3.086-5.324-6.72-7.07-10.852-1.742-4.133-2.586-8.465-2.586-13.043 0-4.582.844-8.812 2.586-12.996 1.746-4.18 4.082-7.813 7.07-10.902 2.989-3.086 6.473-5.625 10.457-7.465q5.97-2.841 12.844-2.84c5.477 0 10.602 1.445 15.281 4.383a40.5 40.5 0 0 1 6.473 4.976v-.148l4.645-4.91c4.605-4.868 4.336-12.72-1.508-16-7.567-4.23-15.832-6.32-24.89-6.32-7.122 0-13.84 1.39-20.165 4.128q-9.481 4.108-16.578 11.203c-4.73 4.73-8.512 10.254-11.25 16.63-2.789 6.37-4.133 13.09-4.133 20.261 0 7.168 1.395 13.89 4.133 20.16 2.738 6.274 6.52 11.852 11.25 16.531q7.094 7.091 16.578 11.2c6.324 2.738 13.043 4.132 20.164 4.132 6.52 0 12.696-1.093 18.617-3.285 5.926-2.191 11.102-5.226 15.633-9.11 4.531-3.886 8.215-8.515 11.102-13.94 2.887-5.376 4.582-11.25 5.129-17.575.797-6.87-4.582-12.894-11.5-12.894" style="stroke:none;fill-rule:nonzero;fill:#2ba2d3;fill-opacity:1"/></g><path d="M295.496 90.168h20.707c3.836-5.523 5.875-12.047 6.922-17.273h-27.629Zm0 0" style="stroke:none;fill-rule:nonzero;fill:#319756;fill-opacity:1"/><g clip-path="url(#d)"><path d="M496.871 144.734c-.894 2.887-2.191 5.426-3.933 7.664-1.743 2.243-3.93 4.086-6.622 5.528-2.687 1.445-5.824 2.14-9.558 2.14-3.73 0-6.867-.695-9.559-2.14-2.687-1.442-4.879-3.285-6.62-5.528-1.743-2.238-3.036-4.828-3.93-7.664-1.38-4.453-5.032-8.265-9.688-8.265h-10.328c0 5.676 1.094 10.902 3.137 15.633 2.09 4.828 4.93 8.96 8.511 12.394 3.586 3.438 7.867 6.125 12.746 8.066s10.157 2.938 15.684 2.938c5.523 0 10.754-.996 15.68-2.937 4.93-1.942 9.16-4.63 12.746-8.067 3.582-3.434 6.422-7.566 8.511-12.394 2.043-4.73 3.086-9.907 3.137-15.633h-18.77c0 2.738-.445 5.476-1.292 8.265Zm0 0" style="stroke:none;fill-rule:nonzero;fill:#319756;fill-opacity:1"/></g><g clip-path="url(#e)"><path d="M525.746 57.762c-27.578-.352-29.32 25.437-28.129 30.765h-.097c.347 1.84.648 3.735.648 5.575 0 2.886-.45 5.726-1.297 8.613-.894 2.887-2.191 5.426-3.933 7.668-1.743 2.238-3.93 4.082-6.622 5.523-2.687 1.446-5.824 2.145-9.558 2.145-3.73 0-6.867-.7-9.559-2.145-2.687-1.441-4.879-3.285-6.62-5.523-1.743-2.242-3.036-4.828-3.93-7.668a28.6 28.6 0 0 1-1.297-8.613c0-2.887.449-5.723 1.296-8.563a23.1 23.1 0 0 1 3.93-7.617c1.742-2.238 3.934-4.082 6.621-5.477 2.688-1.394 5.828-2.09 9.559-2.09 3.734 0 6.87.696 9.558 2.09 2.094 1.098 3.836 2.54 5.38 4.184.05-.25.097-.547.148-.797.996-4.031 2.64-7.617 4.93-10.703.894-1.246 1.992-2.34 3.136-3.336-2.293-1.445-4.781-2.738-7.469-3.734-4.93-1.84-10.156-2.79-15.683-2.79-5.524 0-10.75.95-15.68 2.79-4.93 1.843-9.16 4.48-12.746 7.867-3.582 3.383-6.422 7.465-8.512 12.246-2.093 4.777-3.136 10.055-3.136 15.93q-.002 8.813 3.136 15.98c2.09 4.832 4.93 8.961 8.512 12.398 3.586 3.434 7.867 6.122 12.746 8.067 4.879 1.941 10.156 2.933 15.68 2.933 5.527 0 10.754-.992 15.683-2.933 4.93-1.945 9.16-4.633 12.743-8.067 3.586-3.437 6.425-7.566 8.515-12.398q3.136-7.243 3.137-15.98c0-.997-.05-1.989-.152-2.938h.101v-.992q0-2.764.45-5.676.448-2.911 1.788-5.379c.848-1.64 2.141-2.988 3.786-3.98 1.546-.95 3.535-1.446 5.976-1.496h8.762v-3.98c0-6.575-5.328-11.9-11.902-11.9Zm0 0" style="stroke:none;fill-rule:nonzero;fill:#2ba2d3;fill-opacity:1"/></g></svg>