<svg xmlns="http://www.w3.org/2000/svg" xmlns:xlink="http://www.w3.org/1999/xlink" width="px" height="px" viewBox="0 0 532 226"><defs><clipPath id="b"><path d="M0 0h532v226H0z"/></clipPath><filter id="a" width="100%" height="100%" x="0%" y="0%" filterUnits="objectBoundingBox"><feColorMatrix in="SourceGraphic" values="0 0 0 0 1 0 0 0 0 1 0 0 0 0 1 0 0 0 1 0"/></filter><mask id="d"><g filter="url(#a)"><path d="M0 0h532v226H0z" style="fill:#000;fill-opacity:.2;stroke:none"/></g></mask><g id="c" clip-path="url(#b)"><path d="M551.512 281.309v-.442h-12.555l7.902-24.351-20.695-15.051 20.695-15.047-7.902-24.352h12.555v-.441h-12.696l-7.851-24.184 20.555-14.945v-.543l-12.79-9.3h-15.808l-4.863-14.981-.028-.067-12.785-9.3 4.863-14.98.02-.067-4.879-15.047 12.73-9.262.055-.043 4.887-15.05h15.808l12.79-9.297v-.543l-20.555-14.95 5.68-17.496 14.875-10.82v-.543L530.965 5.262l7.851-24.184h12.696v-.441h-12.555l5.66-17.434.02-.066-5.68-17.496h12.555v-.446h-12.696l-7.851-24.18 20.555-14.949v-.27h-.375l-20.32 14.778-4.802-14.777h-.46l4.89 15.047-12.73 9.261-.063.043-4.883 15.047h-15.812l-12.79 9.301-12.73-9.262-.058-.043h-15.809l-4.887-15.046-12.789-9.301 4.86-14.985.023-.066h-.46l-4.798 14.773-20.32-14.773h-.746l-20.32 14.773-4.797-14.773h-.465l4.89 15.047-20.554 14.95-20.555-14.95 4.89-15.047h-.464l-4.797 14.773-20.324-14.773h-.746l-20.32 14.773-4.797-14.773h-.461l4.886 15.047-12.73 9.262-.059.043-4.886 15.046h-15.809l-12.79 9.301-12.733-9.262-.055-.042h-15.809l-4.89-15.047-12.79-9.301 4.86-14.98.023-.067h-.46l-4.797 14.773-20.32-14.773h-.747l-20.32 14.773-4.797-14.773h-.461l4.887 15.047-20.555 14.95-20.55-14.95 4.886-15.047h-.46l-4.798 14.773-20.324-14.773h-.75l-20.32 14.773-4.797-14.773h-.461l4.887 15.047-12.73 9.262-.06.043-4.886 15.046H61.117l-12.789 9.301-12.73-9.262-.059-.042H19.73L14.844-69.86 2.054-79.16l4.86-14.98.024-.067h-.461L1.68-79.434l-20.32-14.773h-.38v.27L1.535-78.988l-7.847 24.18H-19.02v.44h12.56l-5.685 17.5 5.684 17.5H-19.02v.442h12.708l7.847 24.18-20.555 14.945v.543L-4.145 31.56l5.68 17.5-20.555 14.949v.543l12.735 9.258.058.043H9.578l4.89 15.05 12.79 9.297-4.863 14.985-.024.066 4.887 15.047-12.735 9.262-.054.043-4.89 15.046H-6.228l-12.793 9.301v.54l20.555 14.948-7.847 24.18H-19.02v.446h12.56l-7.907 24.351 20.695 15.047-20.695 15.05 7.906 24.352H-19.02v.442h12.708l7.847 24.18-20.555 14.952v.274h.38l20.32-14.777 4.797 14.777h.46l-4.886-15.05 12.73-9.263.059-.039 4.887-15.05h15.808l12.79-9.297 12.734 9.258.054.043h15.809l4.887 15.05 12.789 9.297-4.864 14.985-.023.066h.46l4.798-14.777 20.32 14.777h.746l20.32-14.777 4.797 14.777h.461l-4.886-15.05 20.554-14.946 20.555 14.945-4.89 15.05h.46l4.801-14.776 20.32 14.777h.746l20.32-14.777 4.798 14.777h.46l-4.886-15.05 12.73-9.263.059-.039 4.887-15.05h15.808l12.79-9.297 12.73 9.258.058.043h15.809l4.887 15.05 12.789 9.297-4.864 14.985-.023.066h.46l4.798-14.777 20.32 14.777h.746l20.32-14.777 4.801 14.777h.461l-4.89-15.05 20.554-14.946 20.555 14.945-4.883 15.05h.461l4.797-14.776 20.32 14.777h.746l20.32-14.777 4.798 14.777h.46l-4.886-15.05 12.73-9.263.059-.039 4.887-15.05h15.808l12.79-9.297 12.734 9.258.054.043h15.813l4.863 14.984.02.066 12.793 9.297-4.864 14.985-.027.066h.46l4.802-14.777 20.316 14.777h.379v-.274l-20.555-14.945 7.852-24.183zm-5.172-55.055-20.55 14.941-14.876-10.816-5.68-17.5 14.871-10.813h18.38l7.855 24.18Zm-129.281 15.21 4.796-14.773 20.32 14.774-20.32 14.777Zm12.328 39.403H404.27l4.796-14.777 12.555-9.133Zm-100.828-24.625-20.32-14.777 20.32-14.774 4.796 14.774Zm.234.715 12.555 9.133 4.797 14.777h-25.118l7.762-23.91Zm-129.652-15.492 4.797-14.774 20.32 14.774-20.32 14.777Zm12.32 39.402h-25.117l4.797-14.777 12.558-9.133 7.758 23.91Zm-100.82-24.625-20.32-14.777 20.32-14.774 4.796 14.774Zm.226.715 12.559 9.133 4.797 14.777h-25.118l7.758-23.91Zm-83.094-44.246 7.852-24.18h25.402l7.852 24.18-20.555 14.95-20.554-14.95Zm20.176 15.223L33.08 238.75l-5.684 17.5-20.32-14.777 14.87-10.82 5.684-17.497ZM43.668 18.957 35.762-5.395h25.582l7.906-24.351L89.57-14.97 68.871.078l7.906 24.352H51.2L43.293 48.78l-20.32-14.777ZM22.602 33.734 7.73 22.918l-5.68-17.5L16.923-5.395H35.3l7.851 24.18-20.554 14.95Zm92.832-48.699L110.637-.187l-20.32-14.778 20.32-14.777Zm-12.325-39.402h25.118L123.43-39.59l-12.555 9.133-7.762-23.91Zm100.825 24.625 20.316 14.777L203.934-.187l-4.801-14.778Zm-.23-.715-12.556-9.133-4.796-14.777h25.117l-7.762 23.91Zm129.651 15.492L328.56-.187l-20.32-14.778 20.32-14.777Zm-12.32-39.402h25.117l-4.8 14.777-12.555 9.133-7.758-23.91Zm100.82 24.625 20.32 14.777-20.32 14.778-4.796-14.778Zm-.226-.715L409.07-39.59l-4.797-14.777h25.118l-7.758 23.91Zm67.2 49.414 20.694 15.047-20.32 14.777-7.906-24.351h-25.578L463.625.078l-20.7-15.047 20.321-14.777 7.91 24.351h25.578Zm8.366-24.348h18.38l14.874 10.813-5.687 17.5-14.867 10.816-20.551-14.949ZM346.38 152.652l-12.79 9.301-12.734-9.262-.054-.043h-15.809l-4.887-15.046-12.789-9.301 4.864-14.98.023-.067-4.887-15.05 12.73-9.259.06-.043 4.882-15.05h15.809l12.789-9.297 12.73 9.261.059.04h15.809l4.882 15.05 12.79 9.297-4.864 14.984-.023.067 4.886 15.047-12.734 9.262-.055.042-4.886 15.047H346.37Zm15.664.438L354.285 177l-20.32-14.777 12.558-9.133Zm-175.867-.395-.059-.043H170.31l-4.887-15.047-12.79-9.3 4.864-14.98.024-.067-4.887-15.047 12.73-9.262.059-.043 4.887-15.05h15.808l12.79-9.297 12.73 9.261.058.043h15.809l4.887 15.047 12.789 9.3-4.864 14.981-.023.067 4.887 15.047-12.73 9.261-.06.043-4.886 15.047h-15.809l-12.789 9.301Zm12.355 9.528L178.211 177l-7.762-23.91h15.524ZM79.871 188.53l14.871-10.816 7.762 23.91H84.125l-14.871 10.813-7.762-23.91h18.383Zm-18.523-.441-5.684-17.5 5.684-17.5H86.75l7.848 24.183-14.871 10.817Zm25.718-35.438H61.488l7.762-23.91 20.695 15.051 20.696-15.05 7.906 24.355h25.578l-7.758 23.906-20.695-15.047-20.7 15.047ZM82.602 42.375l-5.68 17.5H58.543L43.668 49.059l7.852-24.18h25.402Zm-5.215-17.496h25.117l-5.68 17.496 5.68 17.5H77.387l5.683-17.5Zm-.149 35.433h25.407l7.847 24.18-20.55 14.95-20.555-14.95 7.847-24.18Zm67.492 13.536h25.118l-4.797 14.777-12.559 9.133Zm12.325 39.406-4.801 14.777-20.32-14.777 20.32-14.777Zm-4.942-15.219L131.56 112.98l-14.871-10.816-5.68-17.5 14.87-10.812h18.38l7.851 24.183Zm-46.925 12.496L90.316 99.715l20.32-14.778 5.68 17.5 14.871 10.817-20.32 14.777Zm5.308 17.77-20.55 14.949L69.39 128.3l5.68-17.5 14.874-10.816 14.871 10.817Zm15.242-54.89-14.87 10.812-7.759-23.91h18.38l14.874-10.817 7.758 23.91h-18.383ZM89.57 99.714 74.695 110.53l-5.68 17.5-20.32-14.777 14.871-10.817 5.684-17.5Zm29.29 52.937-7.848-24.18 20.554-14.949 20.551 14.95-7.847 24.18zm33.628-23.915 12.559 9.133 4.797 14.777h-25.121l7.761-23.91ZM170.45 73.41l7.762-23.91 20.32 14.777-12.558 9.133Zm142.215-24.625-14.812-10.773-.059-.043h-18.379l7.758-23.91 14.816 10.777.055.043h18.383Zm.23.715 20.32 14.777-12.558 9.133h-15.523Zm-15.242-11.09 14.871 10.817-7.851 24.18H279.27l-5.68-17.5 5.68-17.5h18.382Zm-52.328 59.352-12.558-9.133-4.797-14.777h25.117Zm8.223-23.914h25.406l7.848 24.18-20.555 14.949-20.55-14.95 7.847-24.18Zm-7.996 24.625 20.32 14.777-20.32 14.773-4.797-14.773Zm7.531 54.18h-25.117l4.797-14.778 12.558-9.133Zm-7.387-24.184 20.551-14.95 20.555 14.95-7.848 24.18h-25.406l-7.848-24.18Zm41.477.27 12.558 9.132 4.797 14.777h-25.12l7.761-23.91Zm-.227-.708-20.32-14.777 20.32-14.777 4.797 14.777Zm-7.53-54.183h25.116l-4.797 14.777-12.558 9.133Zm-6.286-17.938 5.68 17.5H253.69l5.68-17.5-5.68-17.496h25.118Zm-14.223 0-5.68 17.5h-25.402l-7.851-24.18 14.87-10.812h18.384l5.68 17.496ZM234.703 37.97 219.832 48.78l-7.762-23.91h18.383l14.871-10.816 7.758 23.91h-18.379ZM227.36 73.41h-15.52l-12.558-9.133 20.32-14.777Zm-15.52 79.68h15.52L219.602 177l-20.32-14.777Zm7.993 24.625 14.813 10.773.058.043h18.379l-7.758 23.91-14.816-10.773-.055-.043H212.07Zm15.012 10.375-14.871-10.817 7.851-24.183h25.403l5.68 17.5-5.68 17.5Zm24.523-17.5-5.68-17.5h25.118l-5.684 17.5 5.684 17.5h-25.118Zm14.223 0 5.68-17.5h25.402l7.851 24.183-14.87 10.817H279.27Zm24.203 17.941 14.871-10.816 7.762 23.91h-18.383l-14.871 10.813-7.758-23.91h18.379Zm7.34-35.441h15.523l12.559 9.133L312.895 177Zm28.832-88.813 20.32-14.777 7.758 23.91h-15.52ZM449.43 42.375l5.683 17.5h-25.117l5.68-17.5-5.68-17.496h25.117Zm6.144-17.496h25.403l7.851 24.18-14.875 10.816h-18.379l-5.683-17.5Zm-.32 35.433 7.851 24.18-20.554 14.95L422 84.491l7.848-24.18zm-27.574 50.489 14.87-10.817 14.872 10.817 5.683 17.5-20.554 14.949L422 128.3Zm-6.051 17.23-20.32-14.777 14.87-10.817 5.68-17.5 20.32 14.778-14.87 10.816Zm36.172-17.5-14.875-10.816 20.32-14.778 5.684 17.5 14.87 10.817-20.32 14.777Zm-36.172-26.308-14.817-10.774-.058-.043h-18.379l7.758-23.91 14.816 10.774.055.042h18.383Zm-15.016-10.375 14.871 10.812-5.68 17.5-14.874 10.817-20.551-14.95 7.848-24.18zm-6.058 39.407-20.32 14.777-4.798-14.777 4.797-14.777Zm-20.547-15.492-12.559-9.133-4.797-14.777h25.118l-7.758 23.91Zm-12.563 40.113 12.559-9.133 7.758 23.91h-25.117l4.796-14.777Zm12.938-9.406 20.555-14.95 20.55 14.95-7.847 24.18h-25.403l-7.851-24.18Zm33.57 24.62 7.906-24.35 20.696 15.05 20.699-15.05 7.758 23.91h-25.578L437.527 177l-20.695-15.047-20.7 15.047-7.757-23.91Zm23.8 24.626 14.817 10.773.055.043h18.383l-7.762 23.91-14.812-10.773-.059-.043h-18.379Zm15.017 10.375-14.872-10.817 7.848-24.183h25.402l5.684 17.5-5.684 17.5Zm24.523-17.5-5.684-17.5h25.118l-5.68 17.5 5.68 17.5h-25.118Zm-5.824-17.938-7.852-24.18 20.555-14.949 20.55 14.95-7.847 24.18zm-2.168-50.489-5.684-17.5 14.871-10.812h18.383l7.848 24.183-20.551 14.945-14.871-10.816Zm9.047-28.754-14.871 10.813-7.758-23.91h18.379l14.87-10.817 7.759 23.91h-18.38ZM463.105.254l-7.851 24.18h-25.402L422.004.254l20.55-14.95L463.11.255Zm-33.718 24.18H404.27l4.796-14.778L421.621.523Zm.14.445 5.684 17.496-5.684 17.5h-18.379l-14.87-10.816 7.847-24.18Zm-33.62 23.906-20.321-14.777 12.555-9.13h15.523Zm-.15.438-7.847 24.183h-25.402l-7.852-24.183 20.555-14.946 20.55 14.946Zm-41.241-.438-7.762-23.906h15.523l12.559 9.129Zm-.371.274L333.59 64.004l-20.555-14.945 7.852-24.18h25.402l7.848 24.18Zm-33.11-24.625 7.758-23.91 12.555 9.132 4.797 14.778h-25.118Zm7.383-24.18-7.852 24.18h-18.378l-14.872-10.817 5.68-17.5 14.871-10.816L328.422.25Zm-35.797-4.406-5.683 17.5-20.32-14.778 14.874-10.812 5.68-17.5 20.32 14.777-14.87 10.817Zm-5.82 17.941-7.848 24.18h-25.406l-7.848-24.18 20.555-14.95 20.55 14.95Zm-41.25-.441-5.68-17.5L225-14.97l20.32-14.777L251-12.25l14.871 10.813-20.32 14.777ZM239.5-3.88l5.68 17.5-14.871 10.82h-18.38L204.08.258l20.554-14.95 14.87 10.82Zm-28.04 28.313h-25.116l4.797-14.778L203.699.523l7.758 23.91Zm.145.445 7.848 24.18-20.55 14.949-20.555-14.95 7.851-24.18zM177.98 48.786l-20.32-14.777 12.559-9.13h15.523Zm-.14.438-7.852 24.183h-25.402l-7.848-24.18 20.551-14.949 20.555 14.95Zm-41.25-.438-7.758-23.906h15.523l12.555 9.133Zm-.371.274-14.871 10.816h-18.383l-5.68-17.5 5.68-17.496h25.406Zm-33.11-24.625 7.758-23.91 12.559 9.132 4.797 14.778h-25.118Zm7.387-24.18-7.848 24.18H77.246L69.395.254l20.554-14.95L110.504.255ZM43.527 49.5 58.34 60.273l.058.043h18.38l-7.758 23.91-14.817-10.773-.055-.043H35.77Zm10.477 24.348L68.879 84.66l-5.684 17.5-14.87 10.817-20.555-14.95 7.851-24.18zm14.875 54.622-7.852 24.18H35.625l-7.852-24.18 20.555-14.95 20.555 14.95Zm-7.992 24.62-5.684 17.5 5.684 17.5H35.77l5.68-17.5-5.68-17.5Zm8.133 60.067 5.683 17.496 14.871 10.82-20.32 14.778-5.684-17.5-14.87-10.816Zm6.05 17.223-5.68-17.5 14.872-10.813h18.383l7.847 24.18-20.55 14.945-14.876-10.816Zm28.04-28.313h25.117l-4.797 14.778-12.555 9.133-7.762-23.91Zm-.145-.437-7.848-24.18 20.555-14.949 20.55 14.95-7.847 24.179zm33.625-23.914 20.32 14.777-12.555 9.133h-15.523Zm.144-.438 7.848-24.18h25.402l7.852 24.18-20.555 14.95-20.554-14.95Zm41.246.438 7.762 23.91H170.22l-12.559-9.133Zm.372-.274 20.554-14.945 20.555 14.945-7.852 24.184h-25.402l-7.848-24.184Zm33.109 24.625-7.758 23.91-12.555-9.132-4.796-14.778h25.117Zm-7.383 24.188 7.852-24.184h18.379l14.87 10.813-5.679 17.5-14.871 10.816-20.555-14.941Zm35.797 4.398 5.684-17.496 20.316 14.778-14.871 10.816-5.68 17.5-20.32-14.777Zm5.82-17.941 7.848-24.18h25.402l7.852 24.18-20.555 14.95-20.55-14.95Zm41.25.445 5.68 17.496 14.871 10.82-20.32 14.778-5.68-17.5-14.871-10.816Zm6.051 17.223-5.68-17.5 14.872-10.813h18.378l7.852 24.18-20.555 14.945-14.87-10.816Zm28.04-28.313h25.116l-4.8 14.778-12.555 9.133-7.758-23.91Zm-.145-.437-7.852-24.18 20.555-14.949 20.554 14.95-7.851 24.179zm33.625-23.914 20.32 14.777-12.559 9.133h-15.523Zm.14-.438 7.852-24.18h25.402l7.848 24.18-20.551 14.95-20.555-14.95Zm41.25.438 7.758 23.91h-15.523l-12.555-9.133Zm.371-.274 20.555-14.945 20.55 14.945-7.847 24.184H404.13l-7.848-24.184Zm33.11 24.625-7.758 23.91-12.559-9.132-4.797-14.778h25.118ZM422 226.254l7.848-24.184h18.379l14.875 10.813-5.684 17.5-14.871 10.816-20.555-14.941Zm35.8 4.398 5.68-17.496 20.32 14.778-14.87 10.816-5.684 17.5-20.32-14.777Zm5.817-17.941 7.852-24.18h25.402l7.848 24.18-20.551 14.95-20.555-14.95Zm41.254.445 5.652 17.43.028.066 14.867 10.82-20.316 14.778-5.684-17.5-14.871-10.816Zm33.48-11.527H519.97l-14.875 10.812-7.758-23.91h18.383l14.87-10.816 7.763 23.91Zm.231-48.54 12.555 9.134L530.82 177l-7.765-23.91Zm-8.133 24.188-14.875 10.817h-18.379l-5.683-17.5 5.683-17.496h25.403Zm-12.793-39.402 4.801 14.777h-25.121l7.758-23.91 12.558 9.133Zm-7.996-24.621-4.797 14.777-20.32-14.777 20.32-14.777Zm7.996-24.625-12.554 9.133-7.762-23.91h25.12l-4.8 14.777Zm4.942-15.219h-25.403l-7.851-24.18 20.554-14.949 20.555 14.95-7.851 24.18Zm28.539-9.133-12.555 9.133h-15.527l7.765-23.91Zm0-43.804-14.813 10.773-.058.043-5.684 17.496-20.316-14.773 14.812-10.778.055-.043 5.687-17.496ZM530.59 4.98 515.719-5.832h-18.383l7.758-23.91 14.875 10.816h18.383l-7.762 23.91Zm-12.563-74.566 12.555-9.133 7.766 23.91h-25.121l4.796-14.777Zm-4.941 15.219h25.406l5.68 17.5-5.68 17.5H520.11l-14.87-10.817Zm-15.98 0h15.519l-7.754 23.91-20.324-14.777Zm-12.934 9.406 20.55 14.945-7.847 24.184h-25.402l-7.848-24.18 20.55-14.949Zm-12.934-9.406 12.559 9.133-20.32 14.777-7.758-23.91Zm-8.133 24.183-20.554 14.946L422-30.184l7.848-24.183h25.402l7.852 24.183Zm-25.351-48.535 12.558 9.133 4.797 14.777h-25.117l7.758-23.91Zm-20.922-15.219 20.55 14.95-7.847 24.18H404.13l-7.848-24.18Zm-20.926 15.22 7.758 23.91h-15.523l-12.555-9.133Zm-20.695 15.05 12.73 9.258.059.043h15.809l4.882 15.05 12.79 9.297-4.864 14.985-.023.066L421.48.078 408.746 9.34l-.055.043-4.886 15.047h-15.809l-12.789 9.3-12.734-9.261-.059-.043h-15.809l-4.882-15.051-12.79-9.297 4.864-14.98.027-.067-4.89-15.05 12.734-9.258.055-.043 4.882-15.051h15.81l12.792-9.297Zm-20.695-15.05 20.32 14.777-12.559 9.132h-15.523Zm-20.926-15.22 20.555 14.95-7.852 24.18h-25.402l-7.852-24.18Zm-33.485 24.352 12.555-9.133 7.766 23.91h-25.117Zm-4.94 15.219h25.401l7.852 24.183-20.555 14.942-20.554-14.95 7.851-24.18Zm-15.985 0h15.523l-7.758 23.91-20.32-14.777Zm-12.934 9.406 20.555 14.945-5.68 17.5-14.875 10.813-14.871-10.813-5.68-17.496Zm-12.93-9.406 12.555 9.133-20.32 14.777-7.758-23.91Zm-8.136 24.183-20.551 14.946-20.555-14.946 7.848-24.183h25.406l7.848 24.183Zm-25.348-48.535 12.555 9.133 4.797 14.777h-25.118l7.758-23.91Zm-20.926-15.219 20.555 14.95-7.852 24.18h-25.402l-7.848-24.18Zm-20.926 15.22 7.762 23.91H170.22l-12.559-9.133Zm-20.695 15.05 12.735 9.258.054.043h15.809l4.887 15.05 12.792 9.297-4.867 14.985-.023.066 4.89 15.047-12.734 9.262-.058.043-4.887 15.047h-15.809l-12.789 9.3-12.73-9.261-.059-.043h-15.809l-4.886-15.051L111.01.078l4.864-14.98.023-.067-4.886-15.05 12.73-9.258.059-.043 4.886-15.051h15.81Zm-20.695-15.05 20.32 14.777-12.555 9.132h-15.523Zm-20.926-15.22 20.555 14.95-7.848 24.18h-25.406l-7.848-24.18ZM82.18-69.585l12.558-9.133 7.762 23.91H77.383Zm-4.942 15.219h25.407l7.847 24.183-20.55 14.946-20.555-14.946 7.847-24.183Zm-15.98 0h15.52l-7.758 23.91L48.7-45.234Zm-12.934 9.406L68.88-30.016 61.027-5.832H35.625l-7.852-24.18L48.328-44.96Zm-12.933-9.406 12.558 9.133-20.32 14.777-7.762-23.91ZM1.906-78.72l12.559 9.133 4.797 14.777H-5.852Zm-13.582 41.852 5.68-17.5h25.402l7.852 24.183-14.871 10.817H-5.996Zm5.824 17.937h18.38l14.87-10.816L35.16-5.84H16.777L1.907 4.977l-7.759-23.91Zm2.082 50.22-14.87-10.821L1.675 5.695l5.683 17.496 14.871 10.82L1.91 48.786Zm-2.316 42.12-12.555-9.133L1.68 49.5l7.759 23.91Zm8.137-24.187L22.6 34.277l20.555 14.946-7.851 24.183H9.902l-7.847-24.18ZM14.84 88.629l-4.797-14.777H35.16l-7.762 23.91-12.554-9.133Zm7.996 24.625 4.797-14.777 20.32 14.777-20.32 14.777Zm-7.996 24.621 12.555-9.133 7.757 23.91H10.035l4.797-14.777ZM9.898 153.09h25.403l5.683 17.5-5.683 17.5H16.92l-14.87-10.817Zm-28.539 9.133 12.555-9.133H9.438L1.68 177Zm20.547 15.492 14.817 10.773.054.043H35.16l-7.762 23.91-14.812-10.773-.059-.043H-5.852Zm-15.75 48.539 7.848-24.184h18.383l14.87 10.813-5.683 17.5-14.87 10.816-20.556-14.941Zm28.313 69.832L1.91 305.219l-7.762-23.91h25.118Zm4.937-15.219H-5.996l-7.848-24.18 20.551-14.949 20.555 14.95-7.848 24.18Zm15.985 0H19.867l7.762-23.91 20.32 14.777Zm12.933-9.402-20.554-14.95 5.683-17.5L48.324 228.2l14.871 10.817 5.684 17.5Zm12.934 9.402-12.559-9.133 20.32-14.777 7.758 23.91Zm8.133-24.18 20.554-14.949 20.551 14.95-7.848 24.18H77.246l-7.851-24.18Zm25.351 48.532-12.558-9.133-4.797-14.777h25.117Zm20.922 15.219-20.55-14.946 7.847-24.183h25.402l7.852 24.183-20.555 14.945Zm20.926-15.22-7.758-23.91h15.523l12.555 9.133Zm20.695-15.046-12.73-9.262-.059-.043h-15.809l-4.886-15.047-12.79-9.3 4.864-14.98.023-.067-4.886-15.051 12.73-9.262.059-.039 4.886-15.05h15.81l12.788-9.298 12.735 9.258.054.043h15.809l4.887 15.051 12.792 9.297-4.867 14.984-.023.067 4.89 15.047-12.734 9.261-.058.043-4.887 15.047h-15.809Zm20.695 15.047-20.32-14.778 12.559-9.132h15.523Zm20.926 15.219-20.554-14.946 7.851-24.183h25.402l7.848 24.183-20.55 14.945Zm33.485-24.352-12.555 9.133-7.766-23.91h25.118Zm4.941-15.219H211.93l-7.852-24.18 20.555-14.949 20.554 14.95-7.851 24.18Zm15.984 0h-15.523l7.758-23.91 20.32 14.777Zm12.93-9.402-20.55-14.95 5.679-17.5 14.871-10.816 14.875 10.817 5.68 17.5Zm12.934 9.402-12.555-9.133 20.32-14.777 7.758 23.91Zm8.136-24.18 20.551-14.949 20.555 14.95-7.852 24.18h-25.402l-7.848-24.18Zm25.348 48.532-12.555-9.133-4.796-14.777h25.117l-7.762 23.91Zm20.926 15.219-20.555-14.946 7.852-24.183h25.402l7.848 24.183-20.551 14.945Zm20.926-15.22-7.762-23.91h15.523l12.559 9.133Zm20.695-15.046-12.734-9.262-.055-.043h-15.809l-4.883-15.047-12.789-9.3 4.864-14.98.023-.067-4.887-15.051 12.73-9.262.06-.039 4.882-15.05h15.809l12.789-9.298 12.73 9.258.059.043h15.809l4.882 15.051 12.79 9.297-4.864 14.984-.023.067 4.886 15.047-12.734 9.261-.055.043-4.886 15.047h-15.809l-12.789 9.3Zm20.695 15.047-20.32-14.778 12.555-9.132h15.523Zm20.926 15.219-20.555-14.946 7.848-24.183h25.402l7.852 24.183-20.555 14.945Zm33.484-24.352-12.558 9.133-7.762-23.91h25.117Zm4.938-15.219h-25.402l-7.848-24.18 20.55-14.949 20.555 14.95-7.847 24.18Zm15.984 0h-15.52l7.759-23.91 20.32 14.777Zm12.934-9.402-20.555-14.95 5.684-17.5 14.87-10.816 14.872 10.817 5.68 17.5Zm12.933 9.402-12.558-9.133 20.324-14.777 7.762 23.91zm33.485 24.352-12.559-9.133-4.793-14.777h25.114l-7.758 23.91Zm-17.504-24.352-7.848-24.18 20.555-14.949 20.55 14.95-7.847 24.18z" style="stroke:none;fill-rule:nonzero;fill:#018bcb;fill-opacity:1"/></g></defs><use xlink:href="#c" mask="url(#d)"/></svg>